<svg xmlns="http://www.w3.org/2000/svg" version="1.1" xmlns:xlink="http://www.w3.org/1999/xlink" xmlns:svgjs="http://svgjs.dev/svgjs" width="1000" height="1000" viewBox="0 0 1000 1000"><rect width="1000" height="1000" fill="#ffffff"></rect><g transform="matrix(0.7,0,0,0.7,149.57575757575756,405.38323238247244)"><svg viewBox="0 0 396 107" data-background-color="#ffffff" preserveAspectRatio="xMidYMid meet" height="270" width="1000" xmlns="http://www.w3.org/2000/svg" xmlns:xlink="http://www.w3.org/1999/xlink"><g id="tight-bounds" transform="matrix(1,0,0,1,0.2400000000000091,0.0661065347907197)"><svg viewBox="0 0 395.52 106.86778693041859" height="106.86778693041859" width="395.52"><g><svg viewBox="0 0 553.8800500115965 149.65598495562523" height="106.86778693041859" width="395.52"><g transform="matrix(1,0,0,1,0,42.255774944664886)"><svg viewBox="0 0 395.52 65.14443506629546" height="65.14443506629546" width="395.52"><g id="textblocktransform"><svg viewBox="0 0 395.52 65.14443506629546" height="65.14443506629546" width="395.52" id="textblock"><g><svg viewBox="0 0 395.52 36.869758281110116" height="36.869758281110116" width="395.52"><g transform="matrix(1,0,0,1,0,0)"><svg width="395.52" viewBox="5.4 -37.3 446.77000000000004 41.65" height="36.869758281110116" data-palette-color="#a65b5b"><path d="M25.7-21.3L25.7-21.3Q27.35-21.3 28.28-20.4 29.2-19.5 29.2-17.9L29.2-17.9Q29.2-17.5 29.13-17.07 29.05-16.65 28.95-16.35L28.95-16.35Q28.3-16.45 27.5-16.53 26.7-16.6 25.6-16.6L25.6-16.6Q23.45-16.6 21.25-16.23 19.05-15.85 17.05-15.6L17.05-15.6Q15.9-12.95 14.95-10.48 14-8 13.33-5.95 12.65-3.9 12.28-2.4 11.9-0.9 11.85-0.15L11.85-0.15Q15.9-1 20.03-1.6 24.15-2.2 28.7-2.5L28.7-2.5Q29.25-1.65 29.63-0.65 30 0.35 30 1.5L30 1.5Q30 1.8 30 2.15 30 2.5 29.9 2.85L29.9 2.85Q28.5 2.8 26.95 2.78 25.4 2.75 22.9 2.75L22.9 2.75Q21.25 2.75 19.78 2.83 18.3 2.9 16.8 3.05 15.3 3.2 13.63 3.45 11.95 3.7 9.85 4.05L9.85 4.05Q7.55 3.15 5.4-0.35L5.4-0.35Q6.25-2.15 7.78-5.83 9.3-9.5 11.65-15.65L11.65-15.65Q9.4-16.35 8.7-18.15L8.7-18.15Q8.95-18.4 10.15-18.78 11.35-19.15 13.1-19.55L13.1-19.55Q13.85-21.5 14.38-22.95 14.9-24.4 15.3-25.68 15.7-26.95 16.03-28.18 16.35-29.4 16.65-30.85L16.65-30.85Q14.9-30.95 13.9-31.83 12.9-32.7 12.9-34.1L12.9-34.1Q12.9-34.5 13.03-35.05 13.15-35.6 13.3-36L13.3-36Q14.3-35.85 15.23-35.8 16.15-35.75 17.65-35.75L17.65-35.75Q20.8-35.75 23.55-35.93 26.3-36.1 28.53-36.3 30.75-36.5 32.35-36.68 33.95-36.85 34.8-36.85L34.8-36.85Q35.95-36.85 36.85-35.65 37.75-34.45 38.2-32.25L38.2-32.25Q36.65-32.4 35.68-32.45 34.7-32.5 33.95-32.5L33.95-32.5Q31.2-32.5 28.93-32.23 26.65-31.95 24.55-31.65L24.55-31.65Q24.25-31.2 23.88-30.5 23.5-29.8 22.9-28.55 22.3-27.3 21.43-25.4 20.55-23.5 19.3-20.65L19.3-20.65Q21.2-20.95 22.88-21.13 24.55-21.3 25.7-21.3ZM54.1-2.85L54.1-2.85Q55.35-0.7 55.35 1.3L55.35 1.3Q55.35 1.75 55.27 2.13 55.2 2.5 55.1 2.9L55.1 2.9Q54.25 2.8 53.32 2.75 52.4 2.7 51.4 2.7L51.4 2.7Q50.2 2.7 48.97 2.78 47.75 2.85 46.25 3 44.75 3.15 42.9 3.4 41.05 3.65 38.6 4.05L38.6 4.05Q37.45 3.65 36.3 2.48 35.15 1.3 34.15-0.35L34.15-0.35Q34.65-1.45 35.4-3.08 36.15-4.7 37.15-7.03 38.15-9.35 39.37-12.48 40.6-15.6 42-19.7L42-19.7Q42.9-22.4 43.55-24.45 44.2-26.5 44.72-28.43 45.25-30.35 45.75-32.45 46.25-34.55 46.85-37.3L46.85-37.3Q48.85-36.9 50.32-35.83 51.8-34.75 53.15-32.75L53.15-32.75Q52.75-32.1 52.1-30.65 51.45-29.2 50.57-27.13 49.7-25.05 48.65-22.43 47.6-19.8 46.45-16.8L46.45-16.8Q45.35-13.85 44.3-11.25 43.25-8.65 42.42-6.55 41.6-4.45 41.1-2.95 40.6-1.45 40.6-0.7L40.6-0.7Q41.4-0.75 42.05-0.8 42.7-0.85 43.4-0.98 44.1-1.1 44.92-1.28 45.75-1.45 46.9-1.75L46.9-1.75Q47.9-2 48.75-2.18 49.6-2.35 50.42-2.48 51.25-2.6 52.12-2.68 53-2.75 54.1-2.85ZM80.6-21.3L80.6-21.3Q82.25-21.3 83.17-20.4 84.1-19.5 84.1-17.9L84.1-17.9Q84.1-17.5 84.02-17.07 83.95-16.65 83.85-16.35L83.85-16.35Q83.2-16.45 82.4-16.53 81.6-16.6 80.5-16.6L80.5-16.6Q78.35-16.6 76.15-16.23 73.95-15.85 71.95-15.6L71.95-15.6Q70.8-12.95 69.85-10.48 68.9-8 68.22-5.95 67.55-3.9 67.17-2.4 66.8-0.9 66.75-0.15L66.75-0.15Q70.8-1 74.92-1.6 79.05-2.2 83.6-2.5L83.6-2.5Q84.15-1.65 84.52-0.65 84.9 0.35 84.9 1.5L84.9 1.5Q84.9 1.8 84.9 2.15 84.9 2.5 84.8 2.85L84.8 2.85Q83.4 2.8 81.85 2.78 80.3 2.75 77.8 2.75L77.8 2.75Q76.15 2.75 74.67 2.83 73.2 2.9 71.7 3.05 70.2 3.2 68.52 3.45 66.85 3.7 64.75 4.05L64.75 4.05Q62.45 3.15 60.3-0.35L60.3-0.35Q61.15-2.15 62.67-5.83 64.2-9.5 66.55-15.65L66.55-15.65Q64.3-16.35 63.6-18.15L63.6-18.15Q63.85-18.4 65.05-18.78 66.25-19.15 68-19.55L68-19.55Q68.75-21.5 69.27-22.95 69.8-24.4 70.2-25.68 70.6-26.95 70.92-28.18 71.25-29.4 71.55-30.85L71.55-30.85Q69.8-30.95 68.8-31.83 67.8-32.7 67.8-34.1L67.8-34.1Q67.8-34.5 67.92-35.05 68.05-35.6 68.2-36L68.2-36Q69.2-35.85 70.12-35.8 71.05-35.75 72.55-35.75L72.55-35.75Q75.7-35.75 78.45-35.93 81.2-36.1 83.42-36.3 85.65-36.5 87.25-36.68 88.85-36.85 89.7-36.85L89.7-36.85Q90.85-36.85 91.75-35.65 92.65-34.45 93.1-32.25L93.1-32.25Q91.55-32.4 90.57-32.45 89.6-32.5 88.85-32.5L88.85-32.5Q86.1-32.5 83.82-32.23 81.55-31.95 79.45-31.65L79.45-31.65Q79.15-31.2 78.77-30.5 78.4-29.8 77.8-28.55 77.2-27.3 76.32-25.4 75.45-23.5 74.2-20.65L74.2-20.65Q76.1-20.95 77.77-21.13 79.45-21.3 80.6-21.3ZM106.29 3.2L106.29 3.2Q105.14 3.8 103.84 3.8L103.84 3.8Q102.24 3.6 100.77 3 99.29 2.4 98.59 1.55L98.59 1.55Q98.19-0.9 97.94-2.95 97.69-5 97.54-6.83 97.39-8.65 97.34-10.33 97.29-12 97.29-13.7L97.29-13.7Q97.29-15.95 97.34-18.45 97.39-20.95 97.47-23.78 97.54-26.6 97.59-29.83 97.64-33.05 97.64-36.85L97.64-36.85Q98.29-36.85 99.59-36.48 100.89-36.1 102.17-35.6 103.44-35.1 104.44-34.58 105.44-34.05 105.54-33.7L105.54-33.7Q105.04-32.3 104.67-30.05 104.29-27.8 104.07-25.05 103.84-22.3 103.74-19.25 103.64-16.2 103.64-13.2L103.64-13.2Q103.64-10.95 103.69-9.18 103.74-7.4 103.82-5.98 103.89-4.55 104.04-3.33 104.19-2.1 104.39-0.9L104.39-0.9Q105.79-5.15 107.47-9.4 109.14-13.65 110.92-17.57 112.69-21.5 114.44-24.9 116.19-28.3 117.77-30.83 119.34-33.35 120.59-34.83 121.84-36.3 122.64-36.4L122.64-36.4Q123.19-36.3 123.82-35.98 124.44-35.65 124.99-35.2 125.54-34.75 125.99-34.2 126.44-33.65 126.69-33.1L126.69-33.1Q124.84-32.45 122.72-30.05 120.59-27.65 118.44-24.28 116.29-20.9 114.27-16.93 112.24-12.95 110.62-9.15 108.99-5.35 107.84-2.05 106.69 1.25 106.29 3.2ZM122.64 3.8L122.64 3.8Q120.24 3.1 119.32 2.4 118.39 1.7 118.39 0.65L118.39 0.65Q118.39-0.15 118.84-1.6 119.29-3.05 120.17-5.03 121.04-7 122.27-9.4 123.49-11.8 125.04-14.55L125.04-14.55Q123.74-14.6 122.72-14.63 121.69-14.65 121.04-14.65L121.04-14.65Q121.34-15.4 122.74-15.95 124.14-16.5 126.44-16.9L126.44-16.9Q128.39-20.15 130.62-23.1 132.84-26.05 135.09-28.53 137.34-31 139.59-32.88 141.84-34.75 143.89-35.85L143.89-35.85Q143.94-36.2 143.97-36.45 143.99-36.7 143.99-36.8L143.99-36.8Q144.69-36.8 145.87-36.45 147.04-36.1 148.17-35.6 149.29-35.1 150.17-34.58 151.04-34.05 151.14-33.7L151.14-33.7Q149.49-30.8 147.89-25.03 146.29-19.25 145.24-11.2L145.24-11.2Q144.99-9.2 144.82-6.65 144.64-4.1 144.64-0.95L144.64-0.95Q144.64 0.15 144.64 1.3 144.64 2.45 144.74 3.7L144.74 3.7Q144.64 3.75 144.54 3.75 144.44 3.75 144.14 3.75L144.14 3.75Q143.44 3.75 142.52 3.53 141.59 3.3 140.72 2.98 139.84 2.65 139.22 2.25 138.59 1.85 138.44 1.55L138.44 1.55Q138.39 0.9 138.39 0.28 138.39-0.35 138.39-1.05L138.39-1.05Q138.39-4.15 138.62-7.35 138.84-10.55 139.39-13.95L139.39-13.95Q138.69-14 137.54-14.08 136.39-14.15 134.97-14.2 133.54-14.25 131.92-14.33 130.29-14.4 128.74-14.45L128.74-14.45Q127.54-12.2 126.49-9.98 125.44-7.75 124.69-5.5L124.69-5.5Q123.84-3.1 123.32-0.7 122.79 1.7 122.64 3.8ZM141.94-26.25L141.94-26.25Q142.14-26.95 142.42-28.18 142.69-29.4 142.94-30.75L142.94-30.75Q141.69-30.3 140.17-29.1 138.64-27.9 137.02-26.13 135.39-24.35 133.72-22.13 132.04-19.9 130.49-17.4L130.49-17.4Q134.69-17.75 140.04-17.85L140.04-17.85Q140.44-19.95 140.92-22.03 141.39-24.1 141.94-26.25ZM160.34-30.3L160.34-30.3Q158.34-30.3 157.26-31.43 156.19-32.55 156.19-34.15L156.19-34.15Q156.19-34.55 156.31-35.1 156.44-35.65 156.64-36.05L156.64-36.05Q157.29-35.75 158.56-35.63 159.84-35.5 161.54-35.5L161.54-35.5Q164.09-35.5 167.31-35.73 170.54-35.95 173.49-36.2 176.44-36.45 178.69-36.68 180.94-36.9 181.59-36.9L181.59-36.9Q183.44-36.9 184.26-35.52 185.09-34.15 185.49-31.85L185.49-31.85Q184.19-31.95 182.91-32.02 181.64-32.1 180.74-32.1L180.74-32.1Q179.14-32.1 177.51-32 175.89-31.9 174.24-31.7L174.24-31.7Q173.54-30.25 172.69-28.28 171.84-26.3 171.01-24.15 170.19-22 169.44-19.88 168.69-17.75 168.14-16.05L168.14-16.05Q167.04-12.75 166.21-9.95 165.39-7.15 164.76-4.73 164.14-2.3 163.69-0.1 163.24 2.1 162.89 4.2L162.89 4.2Q159.54 3.7 157.29 0L157.29 0Q157.69-1.55 158.26-3.38 158.84-5.2 159.61-7.53 160.39-9.85 161.44-12.8 162.49-15.75 163.84-19.5L163.84-19.5Q164.34-20.9 164.89-22.43 165.44-23.95 165.96-25.45 166.49-26.95 166.91-28.35 167.34-29.75 167.64-30.9L167.64-30.9Q165.54-30.65 163.66-30.48 161.79-30.3 160.34-30.3ZM200.49-21.3L200.49-21.3Q202.14-21.3 203.06-20.4 203.99-19.5 203.99-17.9L203.99-17.9Q203.99-17.5 203.91-17.07 203.84-16.65 203.74-16.35L203.74-16.35Q203.09-16.45 202.29-16.53 201.49-16.6 200.39-16.6L200.39-16.6Q198.24-16.6 196.04-16.23 193.84-15.85 191.84-15.6L191.84-15.6Q190.69-12.95 189.74-10.48 188.79-8 188.11-5.95 187.44-3.9 187.06-2.4 186.69-0.9 186.64-0.15L186.64-0.15Q190.69-1 194.81-1.6 198.94-2.2 203.49-2.5L203.49-2.5Q204.04-1.65 204.41-0.65 204.79 0.35 204.79 1.5L204.79 1.5Q204.79 1.8 204.79 2.15 204.79 2.5 204.69 2.85L204.69 2.85Q203.29 2.8 201.74 2.78 200.19 2.75 197.69 2.75L197.69 2.75Q196.04 2.75 194.56 2.83 193.09 2.9 191.59 3.05 190.09 3.2 188.41 3.45 186.74 3.7 184.64 4.05L184.64 4.05Q182.34 3.15 180.19-0.35L180.19-0.35Q181.04-2.15 182.56-5.83 184.09-9.5 186.44-15.65L186.44-15.65Q184.19-16.35 183.49-18.15L183.49-18.15Q183.74-18.4 184.94-18.78 186.14-19.15 187.89-19.55L187.89-19.55Q188.64-21.5 189.16-22.95 189.69-24.4 190.09-25.68 190.49-26.95 190.81-28.18 191.14-29.4 191.44-30.85L191.44-30.85Q189.69-30.95 188.69-31.83 187.69-32.7 187.69-34.1L187.69-34.1Q187.69-34.5 187.81-35.05 187.94-35.6 188.09-36L188.09-36Q189.09-35.85 190.01-35.8 190.94-35.75 192.44-35.75L192.44-35.75Q195.59-35.75 198.34-35.93 201.09-36.1 203.31-36.3 205.54-36.5 207.14-36.68 208.74-36.85 209.59-36.85L209.59-36.85Q210.74-36.85 211.64-35.65 212.54-34.45 212.99-32.25L212.99-32.25Q211.44-32.4 210.46-32.45 209.49-32.5 208.74-32.5L208.74-32.5Q205.99-32.5 203.71-32.23 201.44-31.95 199.34-31.65L199.34-31.65Q199.04-31.2 198.66-30.5 198.29-29.8 197.69-28.55 197.09-27.3 196.21-25.4 195.34-23.5 194.09-20.65L194.09-20.65Q195.99-20.95 197.66-21.13 199.34-21.3 200.49-21.3ZM237.58 0.2L237.58 0.2Q237.13 0.65 236.26 1.23 235.38 1.8 234.38 2.27 233.38 2.75 232.36 3.13 231.33 3.5 230.68 3.55L230.68 3.55Q230.03 3.55 229.53 3.05 229.03 2.55 228.48 0.78 227.93-1 227.21-4.38 226.48-7.75 225.38-13.55L225.38-13.55Q222.53-10.6 220.08-7.85 217.63-5.1 215.88-2.75 214.13-0.4 213.13 1.35 212.13 3.1 212.13 4L212.13 4Q211.53 3.95 210.91 3.55 210.28 3.15 209.78 2.6 209.28 2.05 208.96 1.4 208.63 0.75 208.63 0.15L208.63 0.15Q208.78-0.4 209.38-1.4 209.98-2.4 210.88-3.55L210.88-3.55Q212.78-6 216.31-9.22 219.83-12.45 224.83-16.35L224.83-16.35Q221.58-32.5 215.63-32.5L215.63-32.5Q216.23-33.95 217.56-35.05 218.88-36.15 220.38-36.4L220.38-36.4Q222.03-36.4 223.08-35.98 224.13-35.55 224.98-33.85 225.83-32.15 226.68-28.73 227.53-25.3 228.83-19.35L228.83-19.35Q230.48-21.1 232.01-22.93 233.53-24.75 234.83-26.45 236.13-28.15 237.13-29.6 238.13-31.05 238.68-32.1L238.68-32.1Q239.23-33.05 239.23-34.05L239.23-34.05Q239.23-34.95 238.68-36.4L238.68-36.4Q240.28-35.45 241.11-34.63 241.93-33.8 242.53-32.35L242.53-32.35Q242.43-31.15 241.86-29.95 241.28-28.75 239.86-27.08 238.43-25.4 235.93-22.95 233.43-20.5 229.38-16.85L229.38-16.85Q230.33-12.35 231.23-9.25 232.13-6.15 233.08-4.17 234.03-2.2 235.13-1.18 236.23-0.15 237.58 0.2ZM286.63-33.7L286.63-33.7Q286.78-32.85 286.85-32.52 286.93-32.2 286.93-31.65L286.93-31.65Q286.93-30 286.2-28.58 285.48-27.15 284.23-26.55L284.23-26.55Q283.23-27.9 281.78-28.88 280.33-29.85 278.6-30.48 276.88-31.1 275.03-31.4 273.18-31.7 271.43-31.7L271.43-31.7Q269.68-31.7 268.15-31.43 266.63-31.15 265.45-30.68 264.28-30.2 263.6-29.5 262.93-28.8 262.93-27.9L262.93-27.9Q263.08-26.8 264.28-25.68 265.48-24.55 267.23-23.48 268.98-22.4 271.1-21.35 273.23-20.3 275.28-19.35L275.28-19.35Q277.83-18.15 279.68-17.13 281.53-16.1 282.73-14.88 283.93-13.65 284.53-12.1 285.13-10.55 285.13-8.35L285.13-8.35Q285.13-5.8 284.28-3.58 283.43-1.35 281.8 0.3 280.18 1.95 277.88 2.88 275.58 3.8 272.73 3.8L272.73 3.8Q269.93 3.8 266.68 2.95 263.43 2.1 260.6 0.63 257.78-0.85 255.9-2.78 254.03-4.7 254.03-6.85L254.03-6.85Q254.03-7.85 254.6-9.4 255.18-10.95 256.68-12.65L256.68-12.65Q256.83-11.15 258.3-9.1 259.78-7.05 262.73-5.3L262.73-5.3Q265.48-3.7 268.4-2.98 271.33-2.25 273.88-2.25L273.88-2.25Q276.68-2.25 278.43-2.95 280.18-3.65 281.18-4.63 282.18-5.6 282.58-6.6 282.98-7.6 283.03-8.2L283.03-8.2Q282.98-9.2 282.1-10.13 281.23-11.05 279.75-11.93 278.28-12.8 276.33-13.7 274.38-14.6 272.28-15.5L272.28-15.5Q269.13-16.9 266.85-18.13 264.58-19.35 263.1-20.63 261.63-21.9 260.95-23.3 260.28-24.7 260.28-26.5L260.28-26.5Q260.28-29.3 261.98-31.8 263.68-34.3 266.88-35.6L266.88-35.6Q268.48-36.3 270.3-36.6 272.13-36.9 273.88-36.9L273.88-36.9Q277.18-36.9 280.33-36 283.48-35.1 286.63-33.7ZM323.18-26.95L323.18-26.95Q323.18-24.2 321.8-21.7 320.43-19.2 318.1-17.32 315.78-15.45 312.65-14.35 309.53-13.25 306.03-13.25L306.03-13.25Q304.78-13.25 304.05-13.58 303.33-13.9 302.43-14.85L302.43-14.85Q299.93-9.4 298.35-4.83 296.78-0.25 295.88 4.05L295.88 4.05Q293.98 3.6 292.78 2.48 291.58 1.35 290.58-0.35L290.58-0.35Q291.08-1.3 291.78-2.85 292.48-4.4 293.48-6.68 294.48-8.95 295.8-12.13 297.13-15.3 298.93-19.55L298.93-19.55Q299.73-21.5 300.33-22.95 300.93-24.4 301.38-25.68 301.83-26.95 302.2-28.2 302.58-29.45 302.98-30.95L302.98-30.95Q300.63-30.2 298.65-29.2 296.68-28.2 295.38-27.1L295.38-27.1Q294.93-27.4 294.45-28 293.98-28.6 293.58-29.33 293.18-30.05 292.88-30.8 292.58-31.55 292.53-32.15L292.53-32.15Q293.98-33.15 296.13-34 298.28-34.85 300.73-35.48 303.18-36.1 305.8-36.45 308.43-36.8 310.83-36.8L310.83-36.8Q313.68-36.8 315.98-36.08 318.28-35.35 319.88-34.05 321.48-32.75 322.33-30.95 323.18-29.15 323.18-26.95ZM314.28-32.95L314.28-32.95Q312.38-32.95 310.38-32.65L310.38-32.65 310.98-31.75Q310.48-31.1 309.73-29.8 308.98-28.5 308.08-26.68 307.18-24.85 306.1-22.6 305.03-20.35 303.83-17.85L303.83-17.85Q307.73-17.85 310.93-18.57 314.13-19.3 316.4-20.58 318.68-21.85 319.95-23.55 321.23-25.25 321.23-27.2L321.23-27.2Q321.23-29.8 319.48-31.38 317.73-32.95 314.28-32.95ZM344.27-36.4L344.27-36.4Q345.22-36 346.22-35.38 347.22-34.75 348.07-34.1 348.92-33.45 349.5-32.83 350.07-32.2 350.12-31.8L350.12-31.8Q349.27-32 348.42-32.08 347.57-32.15 346.87-32.15L346.87-32.15Q344.62-32.15 342.4-31.05 340.17-29.95 338.17-28.05 336.17-26.15 334.47-23.6 332.77-21.05 331.55-18.15 330.32-15.25 329.62-12.15 328.92-9.05 328.92-6.05L328.92-6.05Q328.92-2.15 330.22-0.25 331.52 1.65 334.02 1.65L334.02 1.65Q335.22 1.65 336.62 1.18 338.02 0.7 339.47-0.15 340.92-1 342.32-2.2 343.72-3.4 344.92-4.85L344.92-4.85Q346.67-6.95 348.07-9.63 349.47-12.3 350.45-15.3 351.42-18.3 351.95-21.48 352.47-24.65 352.47-27.7L352.47-27.7Q352.47-28.9 352.42-29.73 352.37-30.55 352.3-31.13 352.22-31.7 352.17-32.05 352.12-32.4 352.07-32.65L352.07-32.65Q352.67-32.35 353.4-31.93 354.12-31.5 354.75-30.68 355.37-29.85 355.8-28.5 356.22-27.15 356.22-25L356.22-25Q356.22-21.5 355.4-18.13 354.57-14.75 353.1-11.7 351.62-8.65 349.62-6 347.62-3.35 345.32-1.35L345.32-1.35Q342.32 1.3 338.92 2.75 335.52 4.2 332.37 4.2L332.37 4.2Q327.77 4.2 325.35 1.28 322.92-1.65 322.92-7.35L322.92-7.35Q322.92-10.4 323.6-13.8 324.27-17.2 325.5-20.5 326.72-23.8 328.42-26.78 330.12-29.75 332.15-32.02 334.17-34.3 336.5-35.65 338.82-37 341.27-37L341.27-37Q342.07-37 342.77-36.88 343.47-36.75 344.27-36.4ZM391.37-27.55L391.37-27.55Q391.37-25.15 390.3-23.03 389.22-20.9 387.32-19.23 385.42-17.55 382.87-16.4 380.32-15.25 377.32-14.85L377.32-14.85Q378.07-12.6 379.15-10.23 380.22-7.85 381.47-5.65 382.72-3.45 384.07-1.6 385.42 0.25 386.72 1.45L386.72 1.45Q386.47 1.95 386 2.45 385.52 2.95 384.9 3.38 384.27 3.8 383.6 4.08 382.92 4.35 382.32 4.35L382.32 4.35Q381.22 4.35 380.22 3.3 379.22 2.25 378.2-0.03 377.17-2.3 376.05-5.93 374.92-9.55 373.57-14.65L373.57-14.65Q373.02-14.65 372.47-14.65 371.92-14.65 371.62-14.75L371.62-14.75Q371.27-14.95 370.87-15.45L370.87-15.45Q369.52-12.55 368.47-10 367.42-7.45 366.6-5.08 365.77-2.7 365.15-0.48 364.52 1.75 364.07 4.05L364.07 4.05Q362.37 3.65 361.12 2.6 359.87 1.55 358.77-0.35L358.77-0.35Q358.97-0.8 359.2-1.23 359.42-1.65 359.77-2.43 360.12-3.2 360.65-4.4 361.17-5.6 362.05-7.6 362.92-9.6 364.15-12.5 365.37-15.4 367.12-19.55L367.12-19.55Q367.92-21.4 368.5-22.8 369.07-24.2 369.52-25.48 369.97-26.75 370.35-28.03 370.72-29.3 371.12-30.95L371.12-30.95Q368.82-30.15 366.85-29.18 364.87-28.2 363.57-27.1L363.57-27.1Q363.12-27.4 362.65-28 362.17-28.6 361.77-29.33 361.37-30.05 361.07-30.8 360.77-31.55 360.72-32.15L360.72-32.15Q362.22-33.15 364.4-34 366.57-34.85 369.02-35.48 371.47-36.1 374.02-36.45 376.57-36.8 378.77-36.8L378.77-36.8Q384.77-36.8 388.07-34.33 391.37-31.85 391.37-27.55ZM378.57-32.7L379.17-31.75Q378.82-31.3 378.07-29.95 377.32-28.6 376.35-26.73 375.37-24.85 374.3-22.65 373.22-20.45 372.22-18.3L372.22-18.3Q375.97-18.3 379.12-19 382.27-19.7 384.57-20.98 386.87-22.25 388.15-23.98 389.42-25.7 389.42-27.8L389.42-27.8Q389.42-30.3 387.62-31.63 385.82-32.95 382.07-32.95L382.07-32.95Q381.22-32.95 380.37-32.88 379.52-32.8 378.57-32.7L378.57-32.7ZM399.77-30.3L399.77-30.3Q397.77-30.3 396.69-31.43 395.62-32.55 395.62-34.15L395.62-34.15Q395.62-34.55 395.74-35.1 395.87-35.65 396.07-36.05L396.07-36.05Q396.72-35.75 397.99-35.63 399.27-35.5 400.97-35.5L400.97-35.5Q403.52-35.5 406.74-35.73 409.97-35.95 412.92-36.2 415.87-36.45 418.12-36.68 420.37-36.9 421.02-36.9L421.02-36.9Q422.87-36.9 423.69-35.52 424.52-34.15 424.92-31.85L424.92-31.85Q423.62-31.95 422.34-32.02 421.07-32.1 420.17-32.1L420.17-32.1Q418.57-32.1 416.94-32 415.32-31.9 413.67-31.7L413.67-31.7Q412.97-30.25 412.12-28.28 411.27-26.3 410.44-24.15 409.62-22 408.87-19.88 408.12-17.75 407.57-16.05L407.57-16.05Q406.47-12.75 405.64-9.95 404.82-7.15 404.19-4.73 403.57-2.3 403.12-0.1 402.67 2.1 402.32 4.2L402.32 4.2Q398.97 3.7 396.72 0L396.72 0Q397.12-1.55 397.69-3.38 398.27-5.2 399.04-7.53 399.82-9.85 400.87-12.8 401.92-15.75 403.27-19.5L403.27-19.5Q403.77-20.9 404.32-22.43 404.87-23.95 405.39-25.45 405.92-26.95 406.34-28.35 406.77-29.75 407.07-30.9L407.07-30.9Q404.97-30.65 403.09-30.48 401.22-30.3 399.77-30.3ZM451.87-33.7L451.87-33.7Q452.02-32.85 452.09-32.52 452.17-32.2 452.17-31.65L452.17-31.65Q452.17-30 451.44-28.58 450.72-27.15 449.47-26.55L449.47-26.55Q448.47-27.9 447.02-28.88 445.57-29.85 443.84-30.48 442.12-31.1 440.27-31.4 438.42-31.7 436.67-31.7L436.67-31.7Q434.92-31.7 433.39-31.43 431.87-31.15 430.69-30.68 429.52-30.2 428.84-29.5 428.17-28.8 428.17-27.9L428.17-27.9Q428.32-26.8 429.52-25.68 430.72-24.55 432.47-23.48 434.22-22.4 436.34-21.35 438.47-20.3 440.52-19.35L440.52-19.35Q443.07-18.15 444.92-17.13 446.77-16.1 447.97-14.88 449.17-13.65 449.77-12.1 450.37-10.55 450.37-8.35L450.37-8.35Q450.37-5.8 449.52-3.58 448.67-1.35 447.04 0.3 445.42 1.95 443.12 2.88 440.82 3.8 437.97 3.8L437.97 3.8Q435.17 3.8 431.92 2.95 428.67 2.1 425.84 0.63 423.02-0.85 421.14-2.78 419.27-4.7 419.27-6.85L419.27-6.85Q419.27-7.85 419.84-9.4 420.42-10.95 421.92-12.65L421.92-12.65Q422.07-11.15 423.54-9.1 425.02-7.05 427.97-5.3L427.97-5.3Q430.72-3.7 433.64-2.98 436.57-2.25 439.12-2.25L439.12-2.25Q441.92-2.25 443.67-2.95 445.42-3.65 446.42-4.63 447.42-5.6 447.82-6.6 448.22-7.6 448.27-8.2L448.27-8.2Q448.22-9.2 447.34-10.13 446.47-11.05 444.99-11.93 443.52-12.8 441.57-13.7 439.62-14.6 437.52-15.5L437.52-15.5Q434.37-16.9 432.09-18.13 429.82-19.35 428.34-20.63 426.87-21.9 426.19-23.3 425.52-24.7 425.52-26.5L425.52-26.5Q425.52-29.3 427.22-31.8 428.92-34.3 432.12-35.6L432.12-35.6Q433.72-36.3 435.54-36.6 437.37-36.9 439.12-36.9L439.12-36.9Q442.42-36.9 445.57-36 448.72-35.1 451.87-33.7Z" opacity="1" transform="matrix(1,0,0,1,0,0)" fill="#a65b5b" class="wordmark-text-0" data-fill-palette-color="primary" id="text-0"></path></svg></g></svg></g><g transform="matrix(1,0,0,1,163.31020799999996,45.573823337081464)"><svg viewBox="0 0 232.20979200000002 19.570611729213994" height="19.570611729213994" width="232.20979200000002"><g transform="matrix(1,0,0,1,0,0)"><svg width="232.20979200000002" viewBox="2.05 -36.4 440.15999999999997 37.1" height="19.570611729213994" data-palette-color="#bf8484"><path d="M6.25-11.05Q6.4-7.95 7.93-5.55 9.45-3.15 13.55-3.15L13.55-3.15Q15.7-3.15 17.55-3.83 19.4-4.5 21.45-5.9L21.45-5.9 23.35-2.8Q21.5-1.3 18.8-0.38 16.1 0.55 13.35 0.55L13.35 0.55Q9.85 0.55 7.3-1.07 4.75-2.7 3.4-5.53 2.05-8.35 2.05-11.95L2.05-11.95Q2.05-15.55 3.38-18.75 4.7-21.95 7.28-23.9 9.85-25.85 13.4-25.85L13.4-25.85Q16.3-25.85 18.7-24.45 21.1-23.05 22.5-20.58 23.9-18.1 23.9-15.1L23.9-15.1Q23.9-13.85 23.7-11.05L23.7-11.05 6.25-11.05ZM6.45-14.75L19.85-14.75 19.85-15.25Q19.85-17.2 18.98-18.78 18.1-20.35 16.63-21.25 15.15-22.15 13.35-22.15L13.35-22.15Q10.8-22.15 8.93-20.25 7.05-18.35 6.45-14.75L6.45-14.75ZM29.95 0.05L29.95-36.35 33.95-36.35 33.95 0.05 29.95 0.05ZM44.09-11.05Q44.24-7.95 45.77-5.55 47.3-3.15 51.39-3.15L51.39-3.15Q53.55-3.15 55.39-3.83 57.25-4.5 59.3-5.9L59.3-5.9 61.2-2.8Q59.34-1.3 56.64-0.38 53.95 0.55 51.2 0.55L51.2 0.55Q47.7 0.55 45.14-1.07 42.59-2.7 41.24-5.53 39.89-8.35 39.89-11.95L39.89-11.95Q39.89-15.55 41.22-18.75 42.55-21.95 45.12-23.9 47.7-25.85 51.24-25.85L51.24-25.85Q54.14-25.85 56.55-24.45 58.95-23.05 60.34-20.58 61.75-18.1 61.75-15.1L61.75-15.1Q61.75-13.85 61.55-11.05L61.55-11.05 44.09-11.05ZM44.3-14.75L57.7-14.75 57.7-15.25Q57.7-17.2 56.82-18.78 55.95-20.35 54.47-21.25 52.99-22.15 51.2-22.15L51.2-22.15Q48.64-22.15 46.77-20.25 44.89-18.35 44.3-14.75L44.3-14.75ZM67.29-20.45Q66.89-21.35 66.09-22.13 65.29-22.9 64.49-23.1L64.49-23.1 66.69-26.45Q69.79-24.7 71.34-20.55L71.34-20.55 76.84-6 83.89-25.4 87.99-25.4 78.69 0.05 75.04 0.05 67.29-20.45ZM109.24 0.65Q107.34-0.65 106.54-2.55L106.54-2.55Q105.39-1.1 103.47-0.3 101.54 0.5 99.14 0.5L99.14 0.5Q95.04 0.5 92.56-1.75 90.09-4 90.09-7.7L90.09-7.7Q90.09-11.6 93.04-13.78 95.99-15.95 101.29-15.95L101.29-15.95 105.64-15.95 105.64-17Q105.64-19.85 104.62-21.03 103.59-22.2 101.14-22.2L101.14-22.2Q99.04-22.2 97.02-21.45 94.99-20.7 93.29-19.3L93.29-19.3 91.29-22.35Q93.09-24 95.74-24.95 98.39-25.9 101.19-25.9L101.19-25.9Q105.34-25.9 107.54-23.75 109.74-21.6 109.74-17.55L109.74-17.55 109.74-7.6Q109.74-3.65 111.89-1.85L111.89-1.85 109.24 0.65ZM99.19-3.2Q102.09-3.2 103.87-4.88 105.64-6.55 105.64-9.2L105.64-9.2 105.64-12.25 101.29-12.25Q97.54-12.25 95.87-11.18 94.19-10.1 94.19-7.75L94.19-7.75Q94.19-5.6 95.52-4.4 96.84-3.2 99.19-3.2L99.19-3.2ZM124.54 0.7Q120.94 0.7 118.94-1.43 116.94-3.55 116.94-7.55L116.94-7.55 116.94-31.45 121.04-31.45 121.04-25.35 128.74-25.35 128.74-21.65 121.04-21.65 121.04-7.55Q121.04-5.1 122.06-4.15 123.09-3.2 124.49-3.2L124.49-3.2Q125.49-3.2 126.11-3.4 126.74-3.6 127.79-4.15L127.79-4.15 129.69-0.8Q127.69 0.7 124.54 0.7L124.54 0.7ZM136.19-11.05Q136.34-7.95 137.86-5.55 139.38-3.15 143.49-3.15L143.49-3.15Q145.63-3.15 147.49-3.83 149.34-4.5 151.38-5.9L151.38-5.9 153.28-2.8Q151.44-1.3 148.74-0.38 146.03 0.55 143.28 0.55L143.28 0.55Q139.78 0.55 137.24-1.07 134.69-2.7 133.34-5.53 131.99-8.35 131.99-11.95L131.99-11.95Q131.99-15.55 133.31-18.75 134.63-21.95 137.21-23.9 139.78-25.85 143.34-25.85L143.34-25.85Q146.24-25.85 148.63-24.45 151.03-23.05 152.44-20.58 153.84-18.1 153.84-15.1L153.84-15.1Q153.84-13.85 153.63-11.05L153.63-11.05 136.19-11.05ZM136.38-14.75L149.78-14.75 149.78-15.25Q149.78-17.2 148.91-18.78 148.03-20.35 146.56-21.25 145.09-22.15 143.28-22.15L143.28-22.15Q140.74-22.15 138.86-20.25 136.99-18.35 136.38-14.75L136.38-14.75ZM182.88-14.8L174.33-30.3Q174.13-30.7 173.81-30.8 173.48-30.9 172.63-30.85L172.63-30.85 172.63-34.75Q174.38-34.9 175.73-34.23 177.08-33.55 177.88-32.15L177.88-32.15 184.83-19.25 193.08-34.35 197.78-34.35 186.88-14.9 186.98 0.05 182.88 0.05 182.88-14.8ZM210.53 0.5Q206.98 0.5 204.15-1.2 201.33-2.9 199.73-5.88 198.13-8.85 198.13-12.6L198.13-12.6Q198.13-16.35 199.75-19.38 201.38-22.4 204.2-24.13 207.03-25.85 210.58-25.85L210.58-25.85Q214.13-25.85 216.95-24.15 219.78-22.45 221.38-19.43 222.98-16.4 222.98-12.65L222.98-12.65Q222.98-8.9 221.38-5.9 219.78-2.9 216.93-1.2 214.08 0.5 210.53 0.5L210.53 0.5ZM210.58-3.2Q214.33-3.2 216.6-5.8 218.88-8.4 218.88-12.65L218.88-12.65Q218.88-16.95 216.6-19.55 214.33-22.15 210.58-22.15L210.58-22.15Q208.13-22.15 206.23-20.95 204.33-19.75 203.28-17.6 202.23-15.45 202.23-12.65L202.23-12.65Q202.23-8.4 204.53-5.8 206.83-3.2 210.58-3.2L210.58-3.2ZM237.18 0.4Q232.93 0.4 230.53-1.83 228.13-4.05 228.13-8.05L228.13-8.05 228.13-24.95 232.23-24.95 232.28-8.55Q232.28-6.05 233.45-4.67 234.63-3.3 237.33-3.3L237.33-3.3Q239.58-3.3 241.15-4.42 242.73-5.55 244.48-8L244.48-8 244.48-25 248.58-25 248.58-7.7Q248.58-3.8 250.78-1.95L250.78-1.95 248.18 0.5Q247.18-0.1 246.33-1.25 245.48-2.4 245.03-3.6L245.03-3.6Q243.93-1.6 241.75-0.6 239.58 0.4 237.18 0.4L237.18 0.4ZM266.67-25.85Q268.12-25.85 270.12-25.35L270.12-25.35 270.02-21.4Q268.02-21.95 266.77-21.95L266.77-21.95Q264.42-21.95 263.12-20.85L263.12-20.85Q261.62-19.65 260.52-17.65L260.52-17.65 260.52 0.05 256.42 0.05 256.42-17.65Q256.42-21.55 254.32-23.35L254.32-23.35 257.07-25.9Q257.82-25.45 258.6-24.55 259.37-23.65 259.87-22.5L259.87-22.5Q260.97-23.9 262.12-24.65L262.12-24.65Q264.02-25.85 266.67-25.85L266.67-25.85ZM298.42 0.5Q295.07 0.5 292.59-1.28 290.12-3.05 288.82-6.03 287.52-9 287.52-12.5L287.52-12.5Q287.52-16.25 288.99-19.28 290.47-22.3 293.27-24.05 296.07-25.8 299.87-25.8L299.87-25.8Q301.77-25.8 305.17-25.4L305.17-25.4 305.17-36.4 309.02-36.4 309.02-7.55Q309.02-3.7 311.17-1.75L311.17-1.75 308.72 0.6Q306.87-0.6 305.92-2.95L305.92-2.95Q304.62-1.2 302.62-0.35 300.62 0.5 298.42 0.5L298.42 0.5ZM298.57-3.2Q300.62-3.2 302.17-4.17 303.72-5.15 304.57-6.85L304.57-6.85Q305.17-8.05 305.17-9.65L305.17-9.65 305.17-21.65Q302.82-21.95 301.74-22.03 300.67-22.1 299.47-22.1L299.47-22.1Q295.77-22.1 293.62-19.43 291.47-16.75 291.47-12.65L291.47-12.65Q291.47-8.6 293.34-5.9 295.22-3.2 298.57-3.2L298.57-3.2ZM327.17-25.85Q328.62-25.85 330.62-25.35L330.62-25.35 330.52-21.4Q328.52-21.95 327.27-21.95L327.27-21.95Q324.92-21.95 323.62-20.85L323.62-20.85Q322.12-19.65 321.02-17.65L321.02-17.65 321.02 0.05 316.92 0.05 316.92-17.65Q316.92-21.55 314.82-23.35L314.82-23.35 317.57-25.9Q318.32-25.45 319.09-24.55 319.87-23.65 320.37-22.5L320.37-22.5Q321.47-23.9 322.62-24.65L322.62-24.65Q324.52-25.85 327.17-25.85L327.17-25.85ZM336.76-11.05Q336.91-7.95 338.44-5.55 339.96-3.15 344.06-3.15L344.06-3.15Q346.21-3.15 348.06-3.83 349.91-4.5 351.96-5.9L351.96-5.9 353.86-2.8Q352.01-1.3 349.31-0.38 346.61 0.55 343.86 0.55L343.86 0.55Q340.36 0.55 337.81-1.07 335.26-2.7 333.91-5.53 332.56-8.35 332.56-11.95L332.56-11.95Q332.56-15.55 333.89-18.75 335.21-21.95 337.79-23.9 340.36-25.85 343.91-25.85L343.91-25.85Q346.81-25.85 349.21-24.45 351.61-23.05 353.01-20.58 354.41-18.1 354.41-15.1L354.41-15.1Q354.41-13.85 354.21-11.05L354.21-11.05 336.76-11.05ZM336.96-14.75L350.36-14.75 350.36-15.25Q350.36-17.2 349.49-18.78 348.61-20.35 347.14-21.25 345.66-22.15 343.86-22.15L343.86-22.15Q341.31-22.15 339.44-20.25 337.56-18.35 336.96-14.75L336.96-14.75ZM377.46 0.65Q375.56-0.65 374.76-2.55L374.76-2.55Q373.61-1.1 371.69-0.3 369.76 0.5 367.36 0.5L367.36 0.5Q363.26 0.5 360.79-1.75 358.31-4 358.31-7.7L358.31-7.7Q358.31-11.6 361.26-13.78 364.21-15.95 369.51-15.95L369.51-15.95 373.86-15.95 373.86-17Q373.86-19.85 372.84-21.03 371.81-22.2 369.36-22.2L369.36-22.2Q367.26-22.2 365.24-21.45 363.21-20.7 361.51-19.3L361.51-19.3 359.51-22.35Q361.31-24 363.96-24.95 366.61-25.9 369.41-25.9L369.41-25.9Q373.56-25.9 375.76-23.75 377.96-21.6 377.96-17.55L377.96-17.55 377.96-7.6Q377.96-3.65 380.11-1.85L380.11-1.85 377.46 0.65ZM367.41-3.2Q370.31-3.2 372.09-4.88 373.86-6.55 373.86-9.2L373.86-9.2 373.86-12.25 369.51-12.25Q365.76-12.25 364.09-11.18 362.41-10.1 362.41-7.75L362.41-7.75Q362.41-5.6 363.74-4.4 365.06-3.2 367.41-3.2L367.41-3.2ZM385.41-17.7Q385.41-19.45 384.93-20.85 384.46-22.25 383.16-23.4L383.16-23.4 385.71-25.9Q387.71-24.75 388.66-22.15L388.66-22.15Q390.06-23.9 391.96-24.8 393.86-25.7 395.91-25.7L395.91-25.7Q398.11-25.7 399.93-24.73 401.76-23.75 402.81-21.9L402.81-21.9Q404.26-23.75 406.28-24.73 408.31-25.7 410.41-25.7L410.41-25.7Q413.91-25.7 416.18-23.45 418.46-21.2 418.41-17.4L418.41-17.4 418.21 0.05 414.36 0.05 414.41-16.85Q414.41-19.45 413.38-20.73 412.36-22 410.16-22L410.16-22Q408.06-22 406.56-20.93 405.06-19.85 403.91-17.65L403.91-17.65 403.91 0.05 399.91 0.05 399.91-16.85Q399.91-19.35 398.86-20.68 397.81-22 395.76-22L395.76-22Q393.71-22 391.96-20.8 390.21-19.6 389.41-17.8L389.41-17.8 389.41 0.05 385.41 0.05 385.41-17.7ZM432.91 0.5Q427.41 0.5 423.21-3.7L423.21-3.7 425.56-6.45Q427.46-4.8 429.16-4.03 430.86-3.25 432.76-3.25L432.76-3.25Q435.21-3.25 436.63-4.33 438.06-5.4 438.06-7.3L438.06-7.3Q438.06-8.45 437.48-9.15 436.91-9.85 435.83-10.38 434.76-10.9 432.26-11.9L432.26-11.9Q429.51-13 427.98-13.83 426.46-14.65 425.56-15.93 424.66-17.2 424.66-19.1L424.66-19.1Q424.66-22.2 426.86-24.1 429.06-26 432.56-26L432.56-26Q434.61-26 436.68-25.33 438.76-24.65 439.96-23.6L439.96-23.6 438.21-20.65Q435.96-22.3 432.96-22.3L432.96-22.3Q431.06-22.3 429.93-21.53 428.81-20.75 428.81-19.4L428.81-19.4Q428.81-18 429.93-17.23 431.06-16.45 433.81-15.35L433.81-15.35Q436.91-14.1 438.66-13.1 440.41-12.1 441.31-10.78 442.21-9.45 442.21-7.45L442.21-7.45Q442.21-3.9 439.61-1.7 437.01 0.5 432.91 0.5L432.91 0.5Z" opacity="1" transform="matrix(1,0,0,1,0,0)" fill="#bf8484" class="slogan-text-1" data-fill-palette-color="secondary" id="text-1"></path></svg></g></svg></g></svg></g></svg></g><g transform="matrix(1,0,0,1,404.2240650559713,0)"><svg viewBox="0 0 149.65598495562523 149.65598495562523" height="149.65598495562523" width="149.65598495562523"><g><svg></svg></g><g id="icon-0"><svg viewBox="0 0 149.65598495562523 149.65598495562523" height="149.65598495562523" width="149.65598495562523"><g><rect width="136.07609002446662" height="136.07609002446662" x="6.789947465579303" y="6.789947465579303" fill="#68b436" data-fill-palette-color="accent"></rect><rect width="136.07609002446662" height="136.07609002446662" x="1.1546319456101628e-14" y="1.1546319456101628e-14" fill="#68b436" opacity="0.5" data-fill-palette-color="accent"></rect></g><g transform="matrix(1,0,0,1,19.399849901655124,19.401697506407665)"><svg viewBox="0 0 110.85628515231498 110.8525899428099" height="110.8525899428099" width="110.85628515231498"><g><svg xmlns="http://www.w3.org/2000/svg" xmlns:xlink="http://www.w3.org/1999/xlink" version="1.1" x="0" y="0" viewBox="5 5.002 90 89.997" enable-background="new 0 0 100 100" xml:space="preserve" height="110.8525899428099" width="110.85628515231498" class="icon-z$-0" data-fill-palette-color="background" id="z$-0"><g fill="#ffffff" data-fill-palette-color="background"><path fill="none" d="M65.601 64.003h-7.244c0.214-0.105 0.43-0.319 0.537-0.532l5.856-6.599c0.531-0.749 0.745-1.92 0.318-2.771l-3.622-8.307c-0.425-0.851-1.277-1.599-2.128-1.919l-1.599-0.425-5.218-1.597 0.637-2.025c1.172 1.492 3.09 2.557 5.218 2.557h0.108c1.813 0 3.514-0.745 4.795-2.025 1.277-1.277 1.917-2.979 1.917-4.791 0-3.73-3.09-6.709-6.82-6.709-0.637 0-1.275 0.106-1.914 0.32l1.914-6.286c0.214-0.426 0.108-0.959-0.106-1.385-0.212-0.425-0.637-0.748-1.063-0.96l-1.383-0.426c-0.108 0-0.32 0-0.532 0-0.856 0-1.6 0.532-1.811 1.28l-6.39 20.556c-0.104 0-0.104 0.108-0.104 0.214l-6.287 21.831h-6.39c-0.426 0.106-0.746 0.318-1.065 0.64-0.533 0.536-0.852 1.173-0.852 2.023 0 0.852 0.32 1.597 0.852 2.133l9.477 9.797c0.429 0.639 0.962 1.063 1.706 1.171 0.746 0.214 1.49 0.106 2.022-0.318 0.748-0.426 1.174-0.959 1.388-1.703 0.318-0.851 0.105-1.6-0.32-2.345l-5.433-5.536h0.105H57.72L52.289 75.4c-0.318 0.745-0.426 1.494-0.212 2.345 0.108 0.745 0.639 1.383 1.277 1.808 0.745 0.32 1.494 0.428 2.131 0.214 0.745-0.108 1.277-0.532 1.703-1.171l9.481-9.797c0.639-0.535 0.957-1.174 0.957-2.025 0-0.745-0.318-1.491-0.854-2.022C66.346 64.321 65.922 64.109 65.601 64.003zM56.548 59.424l2.239-8.414 1.491 3.408c0.106 0.318 0 1.065-0.318 1.383L56.548 59.424z"></path><path fill-rule="evenodd" clip-rule="evenodd" d="M60.278 54.418l-1.491-3.408-2.239 8.414 3.411-3.622C60.278 55.483 60.384 54.737 60.278 54.418z" fill="#ffffff" data-fill-palette-color="background"></path><path fill-rule="evenodd" clip-rule="evenodd" d="M49.945 5.002C25.237 5.002 5 25.237 5 49.947c0 24.815 20.237 45.052 44.945 45.052C74.765 94.998 95 74.761 95 49.947 95 25.237 74.765 5.002 49.945 5.002zM66.669 68.799l-9.481 9.797c-0.426 0.639-0.958 1.063-1.703 1.171-0.637 0.214-1.386 0.106-2.131-0.214-0.638-0.425-1.169-1.063-1.277-1.808-0.214-0.851-0.106-1.6 0.212-2.345l5.431-5.536H42.169h-0.105l5.433 5.536c0.425 0.745 0.639 1.494 0.32 2.345-0.214 0.745-0.64 1.277-1.388 1.703-0.532 0.425-1.276 0.532-2.022 0.318-0.745-0.108-1.277-0.532-1.706-1.171l-9.477-9.797c-0.533-0.535-0.852-1.28-0.852-2.133 0-0.851 0.32-1.488 0.852-2.023 0.318-0.322 0.638-0.534 1.065-0.64h6.39l6.287-21.831c0-0.106 0-0.214 0.104-0.214l6.39-20.556c0.211-0.748 0.955-1.28 1.811-1.28 0.212 0 0.425 0 0.532 0l1.383 0.426c0.426 0.212 0.851 0.535 1.063 0.96 0.214 0.426 0.32 0.959 0.106 1.385l-1.914 6.286c0.639-0.214 1.277-0.32 1.914-0.32 3.73 0 6.82 2.979 6.82 6.709 0 1.813-0.64 3.514-1.917 4.791-1.28 1.28-2.982 2.025-4.795 2.025h-0.108c-2.128 0-4.045-1.065-5.218-2.557l-0.637 2.025 5.218 1.597 1.599 0.425c0.851 0.32 1.703 1.068 2.128 1.919l3.622 8.307c0.426 0.851 0.212 2.022-0.318 2.771l-5.856 6.599c-0.108 0.214-0.323 0.428-0.537 0.532h7.244c0.32 0.106 0.745 0.318 1.171 0.749 0.536 0.531 0.854 1.277 0.854 2.022C67.626 67.625 67.308 68.264 66.669 68.799z" fill="#ffffff" data-fill-palette-color="background"></path></g></svg></g></svg></g></svg></g></svg></g></svg></g><defs></defs></svg><rect width="395.52" height="106.86778693041859" fill="none" stroke="none" visibility="hidden"></rect></g></svg></g></svg>