<svg xmlns="http://www.w3.org/2000/svg" version="1.1" xmlns:xlink="http://www.w3.org/1999/xlink" xmlns:svgjs="http://svgjs.dev/svgjs" width="1000" height="1012" viewBox="0 0 1000 1012"><g transform="matrix(1,0,0,1,0.884340419008879,0.40971659919023296)"><svg viewBox="0 0 244 247" data-background-color="#ffffff" preserveAspectRatio="xMidYMid meet" height="1012" width="1000" xmlns="http://www.w3.org/2000/svg" xmlns:xlink="http://www.w3.org/1999/xlink"><g id="tight-bounds" transform="matrix(1,0,0,1,-0.21558093776187093,-0.09999999999999432)"><svg viewBox="0 0 244.43135999999998 247.2" height="247.2" width="244.43135999999998"><g><svg></svg></g><g><svg viewBox="0 0 244.43135999999998 247.2" height="247.2" width="244.43135999999998"><g transform="matrix(1,0,0,1,0,66.95532059213011)"><svg viewBox="0 0 244.43135999999998 113.28935881573976" height="113.28935881573976" width="244.43135999999998"><g><svg viewBox="0 0 244.43136 113.28935881573977" height="113.28935881573976" width="244.43135999999998"><g transform="matrix(1,0,0,1,0,73.25062714946056)"><svg viewBox="0 0 244.43136 40.038731666279226" height="40.038731666279226" width="244.43136"><g id="textblocktransform"><svg viewBox="0 0 244.43136 40.038731666279226" height="40.038731666279226" width="244.43136" id="textblock"><g><svg viewBox="0 0 244.43136 29.422944622908382" height="29.422944622908382" width="244.43136"><g transform="matrix(1,0,0,1,0,0)"><svg width="244.43136" viewBox="-0.05569000169634819 -29.220497131347656 382.4530334472656 46.037010192871094" height="29.422944622908382" data-palette-color="#a65b5b"><path d="M-0.056-17.749l22.045-2.355c0.061 1.509 0.13 3.003 0.207 4.483 0.077 1.474 0.132 2.966 0.167 4.478v0l-10.076 1.609 0.083 3.039 7.12-0.761 0.264 7.464-7.144 1.005 0.134 3.515 5.927-0.633 4.206-0.449c0.095 1.767 0.182 3.521 0.26 5.262 0.085 1.741 0.181 3.484 0.287 5.229v0l-20.561 2.68zM46.029-1.281v0l-0.012 10.727-20.004 3.467c-0.428-5.584-0.84-11.133-1.235-16.647-0.395-5.52-0.764-11.074-1.105-16.66v0l12.446-1.163c-0.038 3.532-0.064 7.057-0.077 10.573-0.006 3.516 0.083 7.053 0.269 10.611v0c0.753-0.037 1.498-0.09 2.235-0.159 0.73-0.068 1.47-0.137 2.22-0.207v0c0.896-0.084 1.775-0.173 2.637-0.267 0.861-0.101 1.736-0.192 2.626-0.275zM46.046-22.311l22.1-1.767c0.02 1.51 0.05 3.006 0.088 4.487 0.038 1.475 0.053 2.969 0.047 4.481v0l-10.116 1.34 0.003 3.04 7.137-0.571 0.065 7.469-7.168 0.813 0.04 3.518 5.942-0.474 4.216-0.337c0.048 1.768 0.088 3.524 0.12 5.267 0.039 1.742 0.088 3.487 0.148 5.235v0l-20.626 2.13zM87.569-25.064l11.094 0.025-6.667 33.962-11.853 1.426-12.945-33.055 11.299-1.781 5.863 19.387zM118.112-26.673l10.897 31.891-11.844 2.101-1.695-5.356-5.474 0.259-0.952 5.481-12.303-0.62 8.048-32.446zM110.658-5.178l3.596-0.17-2.213-8.274zM124.611-26.908l26.195-0.904 0.092 10.202-7.146 0.523-1.086 22.838-10.127 0.861-0.694-22.78-7.153 0.614zM152.982-28.143l22.167-0.402c-0.073 1.508-0.136 3.003-0.189 4.484-0.053 1.475-0.13 2.966-0.229 4.475v0l-10.179 0.715-0.185 3.034 7.159-0.13-0.395 7.458-7.205 0.371-0.176 3.514 5.959-0.108 4.229-0.077c-0.061 1.768-0.13 3.523-0.204 5.265-0.068 1.742-0.127 3.486-0.176 5.234v0l-20.718 0.855zM193.853-28.953l11.353 1.328-9.348 16.318 8.008 14.175-10.044 3.139-4.349-9.801-5.071 9.87-10.397-3.73 8.822-13.967-8.109-14.654 11.005-2.662 3.959 9.662zM239.42-6.157v0c-0.041 2.193-0.457 4.106-1.248 5.738-0.791 1.625-1.859 2.972-3.206 4.041-1.34 1.062-2.902 1.849-4.685 2.363-1.783 0.513-3.691 0.751-5.724 0.713v0c-0.787-0.015-1.648-0.138-2.584-0.369-0.929-0.224-1.871-0.502-2.825-0.833-0.961-0.331-1.881-0.685-2.76-1.062-0.886-0.377-1.67-0.731-2.351-1.064v0l1.245-9.888c1.344 0.845 2.842 1.497 4.495 1.954 1.652 0.451 3.278 0.691 4.877 0.722v0c0.307 0.006 0.677 0.003 1.11-0.01 0.434-0.019 0.848-0.084 1.244-0.196 0.396-0.113 0.732-0.286 1.01-0.522 0.278-0.235 0.421-0.576 0.429-1.022v0c0.006-0.307-0.086-0.572-0.275-0.795-0.189-0.217-0.436-0.395-0.74-0.534-0.304-0.146-0.645-0.259-1.024-0.339-0.385-0.081-0.761-0.138-1.127-0.171-0.373-0.04-0.719-0.063-1.039-0.07-0.32-0.006-0.577-0.011-0.77-0.014v0c-1.373-0.026-2.622-0.289-3.745-0.79-1.124-0.501-2.081-1.189-2.872-2.065-0.79-0.875-1.401-1.903-1.833-3.084-0.425-1.188-0.624-2.472-0.598-3.852v0c0.035-1.893 0.447-3.582 1.235-5.068 0.788-1.479 1.831-2.733 3.131-3.762 1.293-1.023 2.768-1.802 4.425-2.338 1.664-0.529 3.378-0.777 5.144-0.744v0c0.78 0.015 1.586 0.06 2.418 0.136 0.839 0.069 1.667 0.185 2.484 0.346 0.824 0.155 1.627 0.354 2.409 0.595 0.782 0.241 1.524 0.535 2.224 0.882v0l-1.102 9.741c-1.08-0.387-2.214-0.715-3.402-0.984-1.195-0.269-2.359-0.414-3.493-0.435v0c-0.213-0.004-0.483-0.006-0.81-0.005-0.327 0.001-0.67 0.017-1.031 0.051-0.361 0.033-0.728 0.086-1.103 0.159-0.368 0.073-0.697 0.177-0.986 0.312-0.289 0.128-0.526 0.304-0.71 0.526-0.177 0.217-0.262 0.479-0.255 0.786v0c0.007 0.354 0.135 0.639 0.384 0.857 0.243 0.225 0.559 0.401 0.951 0.528 0.391 0.127 0.823 0.219 1.295 0.274 0.472 0.056 0.938 0.094 1.398 0.116 0.466 0.015 0.9 0.024 1.299 0.025 0.4-0.006 0.73 0.01 0.99 0.048v0c1.278 0.104 2.426 0.399 3.444 0.885 1.018 0.486 1.876 1.119 2.575 1.898 0.699 0.78 1.228 1.707 1.588 2.781 0.353 1.073 0.518 2.253 0.494 3.539zM269.222-15.465v0c-0.054 1.552-0.335 2.92-0.843 4.103-0.502 1.19-1.174 2.217-2.018 3.082-0.837 0.871-1.813 1.601-2.928 2.19-1.108 0.589-2.291 1.054-3.55 1.397-1.253 0.35-2.549 0.595-3.888 0.736-1.332 0.141-2.642 0.195-3.928 0.164v0l-0.389 11.203-11.193-0.389c0.127-3.671 0.261-7.325 0.4-10.962 0.146-3.637 0.297-7.304 0.452-11.001v0c0.101-1.958 0.179-3.913 0.234-5.866 0.048-1.953 0.156-3.924 0.325-5.912v0c2.073-0.535 4.141-0.92 6.204-1.156 2.056-0.229 4.173-0.305 6.352-0.229v0c1.239 0.043 2.472 0.186 3.697 0.428 1.226 0.243 2.394 0.6 3.505 1.073 1.118 0.472 2.148 1.048 3.092 1.728 0.95 0.68 1.763 1.482 2.438 2.406 0.675 0.924 1.196 1.966 1.562 3.126 0.367 1.16 0.525 2.453 0.476 3.879zM258.521-15.026v0c0.036-1.039-0.252-1.863-0.865-2.472-0.613-0.602-1.422-0.92-2.429-0.955v0c-0.34-0.012-0.691 0.003-1.052 0.044-0.362 0.041-0.704 0.096-1.026 0.165v0l-0.534 7.015c0.226 0.035 0.442 0.055 0.648 0.063 0.213 0.007 0.43 0.015 0.65 0.022v0c0.58 0.02 1.139-0.054 1.679-0.222 0.546-0.174 1.032-0.434 1.458-0.779 0.432-0.352 0.78-0.767 1.043-1.245 0.263-0.478 0.406-1.023 0.428-1.636zM300.012-7.679v0c-0.077 1.458-0.32 2.854-0.731 4.188-0.404 1.334-0.953 2.577-1.648 3.728-0.695 1.152-1.521 2.197-2.478 3.134-0.957 0.938-2.017 1.73-3.179 2.377-1.169 0.646-2.426 1.131-3.771 1.454-1.352 0.323-2.774 0.445-4.265 0.366v0c-1.438-0.076-2.8-0.334-4.085-0.775-1.286-0.435-2.48-1.015-3.584-1.741-1.103-0.726-2.09-1.579-2.96-2.558-0.869-0.987-1.6-2.07-2.192-3.25-0.586-1.179-1.024-2.434-1.314-3.764-0.291-1.33-0.398-2.708-0.324-4.133v0c0.073-1.391 0.311-2.747 0.715-4.068 0.41-1.32 0.962-2.556 1.657-3.708 0.695-1.152 1.518-2.2 2.468-3.145 0.944-0.945 1.991-1.748 3.141-2.408 1.15-0.667 2.385-1.166 3.704-1.498 1.319-0.331 2.698-0.459 4.135-0.383v0c2.323 0.122 4.422 0.593 6.295 1.412 1.879 0.826 3.46 1.941 4.741 3.343 1.281 1.409 2.245 3.082 2.891 5.019 0.646 1.937 0.907 4.073 0.784 6.41zM289.314-7.61v0c0.036-0.692-0.028-1.367-0.194-2.023-0.166-0.656-0.428-1.248-0.788-1.774-0.353-0.526-0.807-0.96-1.364-1.304-0.549-0.343-1.194-0.533-1.932-0.572v0c-0.752-0.04-1.432 0.062-2.039 0.304-0.607 0.242-1.132 0.588-1.577 1.038-0.451 0.45-0.806 0.986-1.066 1.607-0.253 0.621-0.398 1.284-0.435 1.989v0c-0.035 0.672 0.023 1.35 0.174 2.032 0.158 0.683 0.415 1.304 0.773 1.864 0.357 0.566 0.81 1.034 1.358 1.403 0.548 0.363 1.199 0.564 1.951 0.603v0c0.752 0.04 1.439-0.071 2.061-0.332 0.615-0.268 1.142-0.641 1.581-1.119 0.446-0.484 0.8-1.049 1.06-1.696 0.254-0.641 0.4-1.314 0.437-2.02zM330.238-11.77v0c-0.087 1.244-0.273 2.367-0.558 3.369-0.291 1.002-0.699 1.909-1.224 2.721-0.519 0.819-1.172 1.562-1.961 2.228-0.789 0.666-1.725 1.292-2.808 1.878v0l4.992 10.565-10.942 1.357-2.974-10.474-2.979-0.119-1.14 9.954-10.315-0.725c0.336-3.645 0.668-7.271 0.995-10.877 0.327-3.613 0.666-7.238 1.015-10.875v0c0.163-1.84 0.324-3.66 0.484-5.46 0.16-1.807 0.352-3.628 0.574-5.463v0c1.153-0.333 2.281-0.598 3.384-0.795 1.11-0.196 2.215-0.332 3.317-0.408 1.108-0.069 2.229-0.094 3.364-0.075 1.128 0.026 2.283 0.08 3.467 0.164v0c1.822 0.128 3.567 0.501 5.234 1.119 1.674 0.626 3.13 1.49 4.369 2.593 1.24 1.096 2.202 2.424 2.888 3.982 0.686 1.559 0.958 3.339 0.818 5.341zM319.44-11.757v0c0.047-0.672-0.003-1.293-0.149-1.865-0.146-0.578-0.385-1.083-0.716-1.514-0.331-0.431-0.754-0.781-1.269-1.052-0.522-0.271-1.143-0.431-1.861-0.481v0c-0.319-0.022-0.633-0.024-0.942-0.006-0.309 0.018-0.609 0.057-0.901 0.117v0l-1.006 8.901 0.569 0.04c0.692 0.049 1.4 0.008 2.123-0.121 0.724-0.123 1.381-0.351 1.973-0.684 0.591-0.326 1.089-0.762 1.495-1.308 0.4-0.553 0.628-1.229 0.684-2.027zM332.169-22.8l26.115 2.227-1.125 10.14-7.158-0.333-3.802 22.545-10.158-0.353 2.029-22.7-7.176-0.244zM382.159 3.585v0c-0.224 2.182-0.797 4.053-1.721 5.614-0.923 1.554-2.1 2.807-3.532 3.759-1.424 0.946-3.046 1.601-4.866 1.965-1.82 0.363-3.741 0.441-5.763 0.233v0c-0.783-0.08-1.631-0.274-2.544-0.582-0.907-0.301-1.823-0.656-2.746-1.066-0.93-0.41-1.817-0.84-2.662-1.288-0.852-0.449-1.603-0.868-2.254-1.256v0l2.065-9.75c1.269 0.954 2.708 1.728 4.315 2.322 1.609 0.587 3.209 0.962 4.801 1.125v0c0.305 0.031 0.674 0.059 1.107 0.083 0.434 0.018 0.852-0.013 1.256-0.092 0.404-0.079 0.753-0.224 1.05-0.435 0.296-0.211 0.467-0.538 0.513-0.983v0c0.031-0.305-0.038-0.577-0.208-0.816-0.171-0.232-0.402-0.43-0.693-0.593-0.291-0.171-0.621-0.312-0.992-0.424-0.377-0.112-0.747-0.201-1.109-0.264-0.368-0.071-0.711-0.123-1.03-0.156-0.318-0.033-0.574-0.059-0.766-0.078v0c-1.366-0.14-2.589-0.507-3.667-1.1-1.078-0.593-1.975-1.358-2.69-2.296-0.715-0.938-1.238-2.013-1.569-3.227-0.324-1.219-0.416-2.515-0.275-3.888v0c0.193-1.883 0.744-3.533 1.653-4.948 0.908-1.408 2.053-2.571 3.434-3.488 1.373-0.911 2.908-1.565 4.604-1.961 1.702-0.389 3.431-0.493 5.189-0.312v0c0.776 0.08 1.575 0.192 2.398 0.336 0.83 0.139 1.646 0.323 2.446 0.552 0.808 0.224 1.592 0.488 2.352 0.794 0.759 0.306 1.474 0.66 2.142 1.064v0l-1.91 9.616c-1.044-0.476-2.146-0.897-3.308-1.264-1.169-0.368-2.317-0.609-3.444-0.725v0c-0.212-0.022-0.481-0.046-0.807-0.073-0.326-0.027-0.67-0.038-1.032-0.035-0.362 0.003-0.733 0.025-1.113 0.067-0.373 0.042-0.709 0.118-1.008 0.228-0.299 0.103-0.549 0.259-0.752 0.466-0.195 0.201-0.301 0.455-0.319 0.761v0c-0.023 0.353 0.081 0.648 0.311 0.887 0.223 0.244 0.524 0.446 0.903 0.605 0.379 0.159 0.802 0.287 1.268 0.381 0.466 0.095 0.927 0.172 1.384 0.232 0.464 0.054 0.895 0.098 1.293 0.133 0.399 0.028 0.727 0.071 0.982 0.131v0c1.265 0.21 2.385 0.6 3.358 1.168 0.974 0.569 1.776 1.271 2.408 2.107 0.631 0.835 1.082 1.803 1.351 2.903 0.263 1.099 0.328 2.289 0.197 3.568z" opacity="1" transform="matrix(1,0,0,1,0,0)" fill="#a65b5b" class="wordmark-text-0" data-fill-palette-color="primary" id="text-0"></path></svg></g></svg></g><g transform="matrix(1,0,0,1,73.121641344,31.763453001410532)"><svg viewBox="0 0 98.18807731200002 8.275278664868697" height="8.275278664868697" width="98.18807731200002"><g transform="matrix(1,0,0,1,0,0)"><svg width="98.18807731200002" viewBox="2.049999952316284 -36.400001525878906 440.1600036621094 37.10000228881836" height="8.275278664868697" data-palette-color="#bf8484"><path d="M6.25-11.05Q6.4-7.95 7.93-5.55 9.45-3.15 13.55-3.15L13.55-3.15Q15.7-3.15 17.55-3.83 19.4-4.5 21.45-5.9L21.45-5.9 23.35-2.8Q21.5-1.3 18.8-0.38 16.1 0.55 13.35 0.55L13.35 0.55Q9.85 0.55 7.3-1.07 4.75-2.7 3.4-5.53 2.05-8.35 2.05-11.95L2.05-11.95Q2.05-15.55 3.38-18.75 4.7-21.95 7.28-23.9 9.85-25.85 13.4-25.85L13.4-25.85Q16.3-25.85 18.7-24.45 21.1-23.05 22.5-20.58 23.9-18.1 23.9-15.1L23.9-15.1Q23.9-13.85 23.7-11.05L23.7-11.05 6.25-11.05ZM6.45-14.75L19.85-14.75 19.85-15.25Q19.85-17.2 18.98-18.78 18.1-20.35 16.63-21.25 15.15-22.15 13.35-22.15L13.35-22.15Q10.8-22.15 8.93-20.25 7.05-18.35 6.45-14.75L6.45-14.75ZM29.95 0.05L29.95-36.35 33.95-36.35 33.95 0.05 29.95 0.05ZM44.09-11.05Q44.24-7.95 45.77-5.55 47.3-3.15 51.39-3.15L51.39-3.15Q53.55-3.15 55.39-3.83 57.25-4.5 59.3-5.9L59.3-5.9 61.2-2.8Q59.34-1.3 56.64-0.38 53.95 0.55 51.2 0.55L51.2 0.55Q47.7 0.55 45.14-1.07 42.59-2.7 41.24-5.53 39.89-8.35 39.89-11.95L39.89-11.95Q39.89-15.55 41.22-18.75 42.55-21.95 45.12-23.9 47.7-25.85 51.24-25.85L51.24-25.85Q54.14-25.85 56.55-24.45 58.95-23.05 60.34-20.58 61.75-18.1 61.75-15.1L61.75-15.1Q61.75-13.85 61.55-11.05L61.55-11.05 44.09-11.05ZM44.3-14.75L57.7-14.75 57.7-15.25Q57.7-17.2 56.82-18.78 55.95-20.35 54.47-21.25 52.99-22.15 51.2-22.15L51.2-22.15Q48.64-22.15 46.77-20.25 44.89-18.35 44.3-14.75L44.3-14.75ZM67.29-20.45Q66.89-21.35 66.09-22.13 65.29-22.9 64.49-23.1L64.49-23.1 66.69-26.45Q69.79-24.7 71.34-20.55L71.34-20.55 76.84-6 83.89-25.4 87.99-25.4 78.69 0.05 75.04 0.05 67.29-20.45ZM109.24 0.65Q107.34-0.65 106.54-2.55L106.54-2.55Q105.39-1.1 103.47-0.3 101.54 0.5 99.14 0.5L99.14 0.5Q95.04 0.5 92.56-1.75 90.09-4 90.09-7.7L90.09-7.7Q90.09-11.6 93.04-13.78 95.99-15.95 101.29-15.95L101.29-15.95 105.64-15.95 105.64-17Q105.64-19.85 104.62-21.03 103.59-22.2 101.14-22.2L101.14-22.2Q99.04-22.2 97.02-21.45 94.99-20.7 93.29-19.3L93.29-19.3 91.29-22.35Q93.09-24 95.74-24.95 98.39-25.9 101.19-25.9L101.19-25.9Q105.34-25.9 107.54-23.75 109.74-21.6 109.74-17.55L109.74-17.55 109.74-7.6Q109.74-3.65 111.89-1.85L111.89-1.85 109.24 0.65ZM99.19-3.2Q102.09-3.2 103.87-4.88 105.64-6.55 105.64-9.2L105.64-9.2 105.64-12.25 101.29-12.25Q97.54-12.25 95.87-11.18 94.19-10.1 94.19-7.75L94.19-7.75Q94.19-5.6 95.52-4.4 96.84-3.2 99.19-3.2L99.19-3.2ZM124.54 0.7Q120.94 0.7 118.94-1.43 116.94-3.55 116.94-7.55L116.94-7.55 116.94-31.45 121.04-31.45 121.04-25.35 128.74-25.35 128.74-21.65 121.04-21.65 121.04-7.55Q121.04-5.1 122.06-4.15 123.09-3.2 124.49-3.2L124.49-3.2Q125.49-3.2 126.11-3.4 126.74-3.6 127.79-4.15L127.79-4.15 129.69-0.8Q127.69 0.7 124.54 0.7L124.54 0.7ZM136.19-11.05Q136.34-7.95 137.86-5.55 139.38-3.15 143.49-3.15L143.49-3.15Q145.63-3.15 147.49-3.83 149.34-4.5 151.38-5.9L151.38-5.9 153.28-2.8Q151.44-1.3 148.74-0.38 146.03 0.55 143.28 0.55L143.28 0.55Q139.78 0.55 137.24-1.07 134.69-2.7 133.34-5.53 131.99-8.35 131.99-11.95L131.99-11.95Q131.99-15.55 133.31-18.75 134.63-21.95 137.21-23.9 139.78-25.85 143.34-25.85L143.34-25.85Q146.24-25.85 148.63-24.45 151.03-23.05 152.44-20.58 153.84-18.1 153.84-15.1L153.84-15.1Q153.84-13.85 153.63-11.05L153.63-11.05 136.19-11.05ZM136.38-14.75L149.78-14.75 149.78-15.25Q149.78-17.2 148.91-18.78 148.03-20.35 146.56-21.25 145.09-22.15 143.28-22.15L143.28-22.15Q140.74-22.15 138.86-20.25 136.99-18.35 136.38-14.75L136.38-14.75ZM182.88-14.8L174.33-30.3Q174.13-30.7 173.81-30.8 173.48-30.9 172.63-30.85L172.63-30.85 172.63-34.75Q174.38-34.9 175.73-34.23 177.08-33.55 177.88-32.15L177.88-32.15 184.83-19.25 193.08-34.35 197.78-34.35 186.88-14.9 186.98 0.05 182.88 0.05 182.88-14.8ZM210.53 0.5Q206.98 0.5 204.15-1.2 201.33-2.9 199.73-5.88 198.13-8.85 198.13-12.6L198.13-12.6Q198.13-16.35 199.75-19.38 201.38-22.4 204.2-24.13 207.03-25.85 210.58-25.85L210.58-25.85Q214.13-25.85 216.95-24.15 219.78-22.45 221.38-19.43 222.98-16.4 222.98-12.65L222.98-12.65Q222.98-8.9 221.38-5.9 219.78-2.9 216.93-1.2 214.08 0.5 210.53 0.5L210.53 0.5ZM210.58-3.2Q214.33-3.2 216.6-5.8 218.88-8.4 218.88-12.65L218.88-12.65Q218.88-16.95 216.6-19.55 214.33-22.15 210.58-22.15L210.58-22.15Q208.13-22.15 206.23-20.95 204.33-19.75 203.28-17.6 202.23-15.45 202.23-12.65L202.23-12.65Q202.23-8.4 204.53-5.8 206.83-3.2 210.58-3.2L210.58-3.2ZM237.18 0.4Q232.93 0.4 230.53-1.83 228.13-4.05 228.13-8.05L228.13-8.05 228.13-24.95 232.23-24.95 232.28-8.55Q232.28-6.05 233.45-4.67 234.63-3.3 237.33-3.3L237.33-3.3Q239.58-3.3 241.15-4.42 242.73-5.55 244.48-8L244.48-8 244.48-25 248.58-25 248.58-7.7Q248.58-3.8 250.78-1.95L250.78-1.95 248.18 0.5Q247.18-0.1 246.33-1.25 245.48-2.4 245.03-3.6L245.03-3.6Q243.93-1.6 241.75-0.6 239.58 0.4 237.18 0.4L237.18 0.4ZM266.67-25.85Q268.12-25.85 270.12-25.35L270.12-25.35 270.02-21.4Q268.02-21.95 266.77-21.95L266.77-21.95Q264.42-21.95 263.12-20.85L263.12-20.85Q261.62-19.65 260.52-17.65L260.52-17.65 260.52 0.05 256.42 0.05 256.42-17.65Q256.42-21.55 254.32-23.35L254.32-23.35 257.07-25.9Q257.82-25.45 258.6-24.55 259.37-23.65 259.87-22.5L259.87-22.5Q260.97-23.9 262.12-24.65L262.12-24.65Q264.02-25.85 266.67-25.85L266.67-25.85ZM298.42 0.5Q295.07 0.5 292.59-1.28 290.12-3.05 288.82-6.03 287.52-9 287.52-12.5L287.52-12.5Q287.52-16.25 288.99-19.28 290.47-22.3 293.27-24.05 296.07-25.8 299.87-25.8L299.87-25.8Q301.77-25.8 305.17-25.4L305.17-25.4 305.17-36.4 309.02-36.4 309.02-7.55Q309.02-3.7 311.17-1.75L311.17-1.75 308.72 0.6Q306.87-0.6 305.92-2.95L305.92-2.95Q304.62-1.2 302.62-0.35 300.62 0.5 298.42 0.5L298.42 0.5ZM298.57-3.2Q300.62-3.2 302.17-4.17 303.72-5.15 304.57-6.85L304.57-6.85Q305.17-8.05 305.17-9.65L305.17-9.65 305.17-21.65Q302.82-21.95 301.74-22.03 300.67-22.1 299.47-22.1L299.47-22.1Q295.77-22.1 293.62-19.43 291.47-16.75 291.47-12.65L291.47-12.65Q291.47-8.6 293.34-5.9 295.22-3.2 298.57-3.2L298.57-3.2ZM327.17-25.85Q328.62-25.85 330.62-25.35L330.62-25.35 330.52-21.4Q328.52-21.95 327.27-21.95L327.27-21.95Q324.92-21.95 323.62-20.85L323.62-20.85Q322.12-19.65 321.02-17.65L321.02-17.65 321.02 0.05 316.92 0.05 316.92-17.65Q316.92-21.55 314.82-23.35L314.82-23.35 317.57-25.9Q318.32-25.45 319.09-24.55 319.87-23.65 320.37-22.5L320.37-22.5Q321.47-23.9 322.62-24.65L322.62-24.65Q324.52-25.85 327.17-25.85L327.17-25.85ZM336.76-11.05Q336.91-7.95 338.44-5.55 339.96-3.15 344.06-3.15L344.06-3.15Q346.21-3.15 348.06-3.83 349.91-4.5 351.96-5.9L351.96-5.9 353.86-2.8Q352.01-1.3 349.31-0.38 346.61 0.55 343.86 0.55L343.86 0.55Q340.36 0.55 337.81-1.07 335.26-2.7 333.91-5.53 332.56-8.35 332.56-11.95L332.56-11.95Q332.56-15.55 333.89-18.75 335.21-21.95 337.79-23.9 340.36-25.85 343.91-25.85L343.91-25.85Q346.81-25.85 349.21-24.45 351.61-23.05 353.01-20.58 354.41-18.1 354.41-15.1L354.41-15.1Q354.41-13.85 354.21-11.05L354.21-11.05 336.76-11.05ZM336.96-14.75L350.36-14.75 350.36-15.25Q350.36-17.2 349.49-18.78 348.61-20.35 347.14-21.25 345.66-22.15 343.86-22.15L343.86-22.15Q341.31-22.15 339.44-20.25 337.56-18.35 336.96-14.75L336.96-14.75ZM377.46 0.65Q375.56-0.65 374.76-2.55L374.76-2.55Q373.61-1.1 371.69-0.3 369.76 0.5 367.36 0.5L367.36 0.5Q363.26 0.5 360.79-1.75 358.31-4 358.31-7.7L358.31-7.7Q358.31-11.6 361.26-13.78 364.21-15.95 369.51-15.95L369.51-15.95 373.86-15.95 373.86-17Q373.86-19.85 372.84-21.03 371.81-22.2 369.36-22.2L369.36-22.2Q367.26-22.2 365.24-21.45 363.21-20.7 361.51-19.3L361.51-19.3 359.51-22.35Q361.31-24 363.96-24.95 366.61-25.9 369.41-25.9L369.41-25.9Q373.56-25.9 375.76-23.75 377.96-21.6 377.96-17.55L377.96-17.55 377.96-7.6Q377.96-3.65 380.11-1.85L380.11-1.85 377.46 0.65ZM367.41-3.2Q370.31-3.2 372.09-4.88 373.86-6.55 373.86-9.2L373.86-9.2 373.86-12.25 369.51-12.25Q365.76-12.25 364.09-11.18 362.41-10.1 362.41-7.75L362.41-7.75Q362.41-5.6 363.74-4.4 365.06-3.2 367.41-3.2L367.41-3.2ZM385.41-17.7Q385.41-19.45 384.93-20.85 384.46-22.25 383.16-23.4L383.16-23.4 385.71-25.9Q387.71-24.75 388.66-22.15L388.66-22.15Q390.06-23.9 391.96-24.8 393.86-25.7 395.91-25.7L395.91-25.7Q398.11-25.7 399.93-24.73 401.76-23.75 402.81-21.9L402.81-21.9Q404.26-23.75 406.28-24.73 408.31-25.7 410.41-25.7L410.41-25.7Q413.91-25.7 416.18-23.45 418.46-21.2 418.41-17.4L418.41-17.4 418.21 0.05 414.36 0.05 414.41-16.85Q414.41-19.45 413.38-20.73 412.36-22 410.16-22L410.16-22Q408.06-22 406.56-20.93 405.06-19.85 403.91-17.65L403.91-17.65 403.91 0.05 399.91 0.05 399.91-16.85Q399.91-19.35 398.86-20.68 397.81-22 395.76-22L395.76-22Q393.71-22 391.96-20.8 390.21-19.6 389.41-17.8L389.41-17.8 389.41 0.05 385.41 0.05 385.41-17.7ZM432.91 0.5Q427.41 0.5 423.21-3.7L423.21-3.7 425.56-6.45Q427.46-4.8 429.16-4.03 430.86-3.25 432.76-3.25L432.76-3.25Q435.21-3.25 436.63-4.33 438.06-5.4 438.06-7.3L438.06-7.3Q438.06-8.45 437.48-9.15 436.91-9.85 435.83-10.38 434.76-10.9 432.26-11.9L432.26-11.9Q429.51-13 427.98-13.83 426.46-14.65 425.56-15.93 424.66-17.2 424.66-19.1L424.66-19.1Q424.66-22.2 426.86-24.1 429.06-26 432.56-26L432.56-26Q434.61-26 436.68-25.33 438.76-24.65 439.96-23.6L439.96-23.6 438.21-20.65Q435.96-22.3 432.96-22.3L432.96-22.3Q431.06-22.3 429.93-21.53 428.81-20.75 428.81-19.4L428.81-19.4Q428.81-18 429.93-17.23 431.06-16.45 433.81-15.35L433.81-15.35Q436.91-14.1 438.66-13.1 440.41-12.1 441.31-10.78 442.21-9.45 442.21-7.45L442.21-7.45Q442.21-3.9 439.61-1.7 437.01 0.5 432.91 0.5L432.91 0.5Z" opacity="1" transform="matrix(1,0,0,1,0,0)" fill="#bf8484" class="slogan-text-1" data-fill-palette-color="secondary" id="text-1"></path></svg></g></svg></g></svg></g></svg></g><g transform="matrix(1,0,0,1,89.82326418196992,0)"><svg viewBox="0 0 64.78483163606018 64.78266783603978" height="64.78266783603978" width="64.78483163606018"><g><svg xmlns="http://www.w3.org/2000/svg" xmlns:xlink="http://www.w3.org/1999/xlink" version="1.1" x="0" y="0" viewBox="5 5.001999855041504 90 89.99699401855469" enable-background="new 0 0 100 100" xml:space="preserve" height="64.78266783603978" width="64.78483163606018" class="icon-icon-0" data-fill-palette-color="accent" id="icon-0"><g fill="#68b436" data-fill-palette-color="accent"><path fill="none" d="M65.601 64.003h-7.244c0.214-0.105 0.43-0.319 0.537-0.532l5.856-6.599c0.531-0.749 0.745-1.92 0.318-2.771l-3.622-8.307c-0.425-0.851-1.277-1.599-2.128-1.919l-1.599-0.425-5.218-1.597 0.637-2.025c1.172 1.492 3.09 2.557 5.218 2.557h0.108c1.813 0 3.514-0.745 4.795-2.025 1.277-1.277 1.917-2.979 1.917-4.791 0-3.73-3.09-6.709-6.82-6.709-0.637 0-1.275 0.106-1.914 0.32l1.914-6.286c0.214-0.426 0.108-0.959-0.106-1.385-0.212-0.425-0.637-0.748-1.063-0.96l-1.383-0.426c-0.108 0-0.32 0-0.532 0-0.856 0-1.6 0.532-1.811 1.28l-6.39 20.556c-0.104 0-0.104 0.108-0.104 0.214l-6.287 21.831h-6.39c-0.426 0.106-0.746 0.318-1.065 0.64-0.533 0.536-0.852 1.173-0.852 2.023 0 0.852 0.32 1.597 0.852 2.133l9.477 9.797c0.429 0.639 0.962 1.063 1.706 1.171 0.746 0.214 1.49 0.106 2.022-0.318 0.748-0.426 1.174-0.959 1.388-1.703 0.318-0.851 0.105-1.6-0.32-2.345l-5.433-5.536h0.105H57.72L52.289 75.4c-0.318 0.745-0.426 1.494-0.212 2.345 0.108 0.745 0.639 1.383 1.277 1.808 0.745 0.32 1.494 0.428 2.131 0.214 0.745-0.108 1.277-0.532 1.703-1.171l9.481-9.797c0.639-0.535 0.957-1.174 0.957-2.025 0-0.745-0.318-1.491-0.854-2.022C66.346 64.321 65.922 64.109 65.601 64.003zM56.548 59.424l2.239-8.414 1.491 3.408c0.106 0.318 0 1.065-0.318 1.383L56.548 59.424z"></path><path fill-rule="evenodd" clip-rule="evenodd" d="M60.278 54.418l-1.491-3.408-2.239 8.414 3.411-3.622C60.278 55.483 60.384 54.737 60.278 54.418z" fill="#68b436" data-fill-palette-color="accent"></path><path fill-rule="evenodd" clip-rule="evenodd" d="M49.945 5.002C25.237 5.002 5 25.237 5 49.947c0 24.815 20.237 45.052 44.945 45.052C74.765 94.998 95 74.761 95 49.947 95 25.237 74.765 5.002 49.945 5.002zM66.669 68.799l-9.481 9.797c-0.426 0.639-0.958 1.063-1.703 1.171-0.637 0.214-1.386 0.106-2.131-0.214-0.638-0.425-1.169-1.063-1.277-1.808-0.214-0.851-0.106-1.6 0.212-2.345l5.431-5.536H42.169h-0.105l5.433 5.536c0.425 0.745 0.639 1.494 0.32 2.345-0.214 0.745-0.64 1.277-1.388 1.703-0.532 0.425-1.276 0.532-2.022 0.318-0.745-0.108-1.277-0.532-1.706-1.171l-9.477-9.797c-0.533-0.535-0.852-1.28-0.852-2.133 0-0.851 0.32-1.488 0.852-2.023 0.318-0.322 0.638-0.534 1.065-0.64h6.39l6.287-21.831c0-0.106 0-0.214 0.104-0.214l6.39-20.556c0.211-0.748 0.955-1.28 1.811-1.28 0.212 0 0.425 0 0.532 0l1.383 0.426c0.426 0.212 0.851 0.535 1.063 0.96 0.214 0.426 0.32 0.959 0.106 1.385l-1.914 6.286c0.639-0.214 1.277-0.32 1.914-0.32 3.73 0 6.82 2.979 6.82 6.709 0 1.813-0.64 3.514-1.917 4.791-1.28 1.28-2.982 2.025-4.795 2.025h-0.108c-2.128 0-4.045-1.065-5.218-2.557l-0.637 2.025 5.218 1.597 1.599 0.425c0.851 0.32 1.703 1.068 2.128 1.919l3.622 8.307c0.426 0.851 0.212 2.022-0.318 2.771l-5.856 6.599c-0.108 0.214-0.323 0.428-0.537 0.532h7.244c0.32 0.106 0.745 0.318 1.171 0.749 0.536 0.531 0.854 1.277 0.854 2.022C67.626 67.625 67.308 68.264 66.669 68.799z" fill="#68b436" data-fill-palette-color="accent"></path></g></svg></g></svg></g><g></g></svg></g></svg></g><path d="M0 60.955L0 1 244.431 1 244.431 60.955 243.537 60.955 243.537 1.894 0.894 1.894 0.894 60.955 0 60.955M0 186.245L0 246.2 244.431 246.2 244.431 186.245 243.537 186.245 243.537 245.306 0.894 245.306 0.894 186.245 0 186.245" fill="#a65b5b" stroke="transparent" data-fill-palette-color="primary"></path></svg></g><defs></defs></svg><rect width="244.43135999999998" height="247.2" fill="none" stroke="none" visibility="hidden"></rect></g></svg></g></svg>