<svg xmlns="http://www.w3.org/2000/svg" version="1.1" xmlns:xlink="http://www.w3.org/1999/xlink" xmlns:svgjs="http://svgjs.dev/svgjs" width="2000" height="681" viewBox="0 0 2000 681"><g transform="matrix(1,0,0,1,-1.2121212121212466,0.31692747098406926)"><svg viewBox="0 0 396 135" data-background-color="#ffffff" preserveAspectRatio="xMidYMid meet" height="681" width="2000" xmlns="http://www.w3.org/2000/svg" xmlns:xlink="http://www.w3.org/1999/xlink"><g id="tight-bounds" transform="matrix(1,0,0,1,0.2400000000000091,-0.06282703169287629)"><svg viewBox="0 0 395.52 135.12565406338575" height="135.12565406338575" width="395.52"><g><svg viewBox="0 0 627.819338863464 214.48851839999998" height="135.12565406338575" width="395.52"><g transform="matrix(1,0,0,1,0,44.78237956006069)"><svg viewBox="0 0 395.52 124.9237592798786" height="124.9237592798786" width="395.52"><g id="textblocktransform"><svg viewBox="0 0 395.52 124.9237592798786" height="124.9237592798786" width="395.52" id="textblock"><g><svg viewBox="0 0 395.52 75.44528229665073" height="75.44528229665073" width="395.52"><g transform="matrix(1,0,0,1,0,0)"><svg width="395.52" viewBox="5.4 -41.5 313.47 59.8" height="75.44528229665073" data-palette-color="#ffffff"><path d="M25.7-21.3L25.7-21.3Q27.35-21.3 28.28-20.4 29.2-19.5 29.2-17.9L29.2-17.9Q29.2-17.5 29.13-17.07 29.05-16.65 28.95-16.35L28.95-16.35Q28.3-16.45 27.5-16.53 26.7-16.6 25.6-16.6L25.6-16.6Q23.45-16.6 21.25-16.23 19.05-15.85 17.05-15.6L17.05-15.6Q15.9-12.95 14.95-10.48 14-8 13.33-5.95 12.65-3.9 12.28-2.4 11.9-0.9 11.85-0.15L11.85-0.15Q15.9-1 20.03-1.6 24.15-2.2 28.7-2.5L28.7-2.5Q29.25-1.65 29.63-0.65 30 0.35 30 1.5L30 1.5Q30 1.8 30 2.15 30 2.5 29.9 2.85L29.9 2.85Q28.5 2.8 26.95 2.78 25.4 2.75 22.9 2.75L22.9 2.75Q21.25 2.75 19.78 2.83 18.3 2.9 16.8 3.05 15.3 3.2 13.63 3.45 11.95 3.7 9.85 4.05L9.85 4.05Q7.55 3.15 5.4-0.35L5.4-0.35Q6.25-2.15 7.78-5.83 9.3-9.5 11.65-15.65L11.65-15.65Q9.4-16.35 8.7-18.15L8.7-18.15Q8.95-18.4 10.15-18.78 11.35-19.15 13.1-19.55L13.1-19.55Q13.85-21.5 14.38-22.95 14.9-24.4 15.3-25.68 15.7-26.95 16.03-28.18 16.35-29.4 16.65-30.85L16.65-30.85Q14.9-30.95 13.9-31.83 12.9-32.7 12.9-34.1L12.9-34.1Q12.9-34.5 13.03-35.05 13.15-35.6 13.3-36L13.3-36Q14.3-35.85 15.23-35.8 16.15-35.75 17.65-35.75L17.65-35.75Q20.8-35.75 23.55-35.93 26.3-36.1 28.53-36.3 30.75-36.5 32.35-36.68 33.95-36.85 34.8-36.85L34.8-36.85Q35.95-36.85 36.85-35.65 37.75-34.45 38.2-32.25L38.2-32.25Q36.65-32.4 35.68-32.45 34.7-32.5 33.95-32.5L33.95-32.5Q31.2-32.5 28.93-32.23 26.65-31.95 24.55-31.65L24.55-31.65Q24.25-31.2 23.88-30.5 23.5-29.8 22.9-28.55 22.3-27.3 21.43-25.4 20.55-23.5 19.3-20.65L19.3-20.65Q21.2-20.95 22.88-21.13 24.55-21.3 25.7-21.3ZM34.55-3.2L34.55-3.2Q34.55-5.4 35.6-9.38 36.65-13.35 38.55-18.65L38.55-18.65Q41.65-27.1 44.37-32.73 47.1-38.35 49.7-41.5L49.7-41.5Q50.3-41.4 51.17-41 52.05-40.6 52.9-40.13 53.75-39.65 54.42-39.15 55.1-38.65 55.3-38.35L55.3-38.35Q51.4-33.75 48.45-28.45 45.5-23.15 43.05-16.3L43.05-16.3Q40.95-10.4 39.85-5.68 38.75-0.95 38.75 2.2L38.75 2.2Q38.75 3.05 38.75 3.25 38.75 3.45 38.8 3.65L38.8 3.65Q38.1 3.55 37.6 3.3 37.1 3.05 36.95 2.7L36.95 2.7Q36.85 2.45 36.4 1.98 35.95 1.5 35.6 1.25L35.6 1.25Q35.15 0.95 34.85-0.33 34.55-1.6 34.55-3.2ZM64.09-20.7L64.09-20.7Q63.89-17.6 63-15.38 62.09-13.15 60.42-11.48 58.75-9.8 56.34-8.45 53.95-7.1 50.74-5.85L50.74-5.85Q50.74-5.55 50.72-5.23 50.7-4.9 50.7-4.55L50.7-4.55Q50.7-3.9 50.8-3.2 50.89-2.5 51.14-1.9 51.39-1.3 51.84-0.93 52.3-0.55 52.99-0.55L52.99-0.55Q54.34-0.55 55.64-1.15 56.95-1.75 58.12-2.63 59.3-3.5 60.32-4.53 61.34-5.55 62.14-6.4L62.14-6.4Q62.64-5.95 63-5.55L63-5.55Q60.75-2.55 58.07-0.58 55.39 1.4 52.99 1.95L52.99 1.95Q49.55 1.55 47.62-0.58 45.7-2.7 45.7-5.7L45.7-5.7Q45.7-7.75 46.27-9.88 46.84-12 47.87-13.98 48.89-15.95 50.27-17.7 51.64-19.45 53.22-20.75 54.8-22.05 56.47-22.8 58.14-23.55 59.8-23.55L59.8-23.55Q62.09-23.25 64.09-20.7ZM60.64-19.05L60.64-19.05Q59.3-18.85 57.84-17.95 56.39-17.05 55.12-15.55 53.84-14.05 52.8-12.05 51.74-10.05 51.14-7.75L51.14-7.75Q55.14-9.75 57.8-12.68 60.45-15.6 60.64-19.05ZM68.79-17.7L68.79-17.7Q68.79-18.6 68.92-19.4 69.04-20.2 69.44-20.78 69.84-21.35 70.54-21.68 71.24-22 72.39-22L72.39-22Q73.09-22 73.97-21.85 74.84-21.7 75.24-21.3L75.24-21.3Q75.04-20.45 74.92-19.8 74.79-19.15 74.72-18.38 74.64-17.6 74.59-16.53 74.54-15.45 74.49-13.75L74.49-13.75Q74.39-10.35 74.17-7.68 73.94-5 73.14-2.35L73.14-2.35Q73.14-2.15 73.29-2.15L73.29-2.15Q74.04-2.7 74.99-3.75 75.94-4.8 76.99-6.13 78.04-7.45 79.09-8.95 80.14-10.45 81.04-11.9L81.04-11.9Q82.24-14 83.69-17.15 85.14-20.3 86.09-23.9L86.09-23.9Q86.39-23.9 86.87-23.78 87.34-23.65 87.82-23.48 88.29-23.3 88.67-23.1 89.04-22.9 89.19-22.75L89.19-22.75Q89.09-20.6 88.17-18.35 87.24-16.1 85.94-14 84.64-11.9 83.19-10.05 81.74-8.2 80.54-6.85L80.54-6.85Q78.14-4.05 75.72-1.85 73.29 0.35 69.94 2.4L69.94 2.4Q68.64 1.9 67.89 1.07 67.14 0.25 67.14-0.65L67.14-0.65Q67.14-1.25 67.42-2.02 67.69-2.8 68.04-4.03 68.39-5.25 68.67-7.1 68.94-8.95 68.94-11.8L68.94-11.8Q68.94-13.45 68.87-15.13 68.79-16.8 68.79-17.7ZM105.69-20.2L105.69-20.2Q106.19-20.2 106.87-20.03 107.54-19.85 108.09-19.58 108.64-19.3 109.02-19 109.39-18.7 109.39-18.45L109.39-18.45Q108.39-16.35 107.54-14.23 106.69-12.1 106.09-10.15 105.49-8.2 105.17-6.5 104.84-4.8 104.84-3.55L104.84-3.55Q104.84-2.15 105.14-1.23 105.44-0.3 106.14 0.1L106.14 0.1Q105.54 0.5 104.59 0.75 103.64 1 102.89 1L102.89 1Q100.19 1 100.19-2.7L100.19-2.7Q100.19-5.55 102.09-10.5L102.09-10.5Q101.09-8.2 99.79-6.18 98.49-4.15 97.14-2.6 95.79-1.05 94.42-0.08 93.04 0.9 91.89 1.1L91.89 1.1Q90.04 1 88.89-0.68 87.74-2.35 87.74-4.95L87.74-4.95Q87.74-7.75 88.94-10.85 90.14-13.95 92.02-16.6 93.89-19.25 96.09-21.03 98.29-22.8 100.34-22.9L100.34-22.9Q100.84-22.75 101.47-22.3 102.09-21.85 102.67-21.25 103.24-20.65 103.64-20.03 104.04-19.4 104.09-18.95L104.09-18.95Q102.09-18.65 99.97-17 97.84-15.35 96.12-13.03 94.39-10.7 93.29-8.05 92.19-5.4 92.19-3.1L92.19-3.1Q92.19-2.15 92.89-1.9L92.89-1.9Q94.34-2.2 96.24-4.38 98.14-6.55 100.84-11.1L100.84-11.1Q101.34-12 101.97-13.1 102.59-14.2 103.24-15.4 103.89-16.6 104.52-17.82 105.14-19.05 105.69-20.2ZM116.89-19.15L114.04-19.15Q113.79-19.45 113.59-20.43 113.39-21.4 113.39-22.1L113.39-22.1Q114.69-22 115.89-21.93 117.09-21.85 118.09-21.8L118.09-21.8Q118.84-23.3 119.71-24.78 120.59-26.25 121.41-27.48 122.24-28.7 122.96-29.55 123.69-30.4 124.09-30.65L124.09-30.65Q124.59-30.65 125.36-30.48 126.14-30.3 126.94-30.03 127.74-29.75 128.39-29.45 129.04-29.15 129.29-28.85L129.29-28.85Q127.79-26.95 126.71-25.33 125.64-23.7 124.39-21.6L124.39-21.6Q125.39-21.6 126.41-21.65 127.44-21.7 128.49-21.8L128.49-21.8Q128.74-21.55 128.89-21.18 129.04-20.8 129.04-20.4L129.04-20.4Q126.59-19.5 123.09-19.4L123.09-19.4Q121.84-17 120.86-14.63 119.89-12.25 119.21-10.05 118.54-7.85 118.16-5.9 117.79-3.95 117.79-2.4L117.79-2.4Q117.79-0.2 119.44 0.05L119.44 0.05Q120.94-0.15 122.29-0.7 123.64-1.25 124.69-2.1L124.69-2.1Q124.99-1.65 125.04-1.35L125.04-1.35Q124.74-0.9 124.01-0.3 123.29 0.3 122.44 0.88 121.59 1.45 120.79 1.85 119.99 2.25 119.59 2.3L119.59 2.3Q118.34 2.25 117.09 1.75 115.84 1.25 114.81 0.5 113.79-0.25 113.14-1.18 112.49-2.1 112.49-3L112.49-3Q112.49-4.2 112.81-6.03 113.14-7.85 113.74-10 114.34-12.15 115.14-14.5 115.94-16.85 116.89-19.15L116.89-19.15ZM146.59-20.7L146.59-20.7Q146.39-17.6 145.49-15.38 144.59-13.15 142.91-11.48 141.24-9.8 138.84-8.45 136.44-7.1 133.24-5.85L133.24-5.85Q133.24-5.55 133.21-5.23 133.19-4.9 133.19-4.55L133.19-4.55Q133.19-3.9 133.28-3.2 133.39-2.5 133.64-1.9 133.89-1.3 134.34-0.93 134.78-0.55 135.49-0.55L135.49-0.55Q136.84-0.55 138.14-1.15 139.44-1.75 140.61-2.63 141.78-3.5 142.81-4.53 143.84-5.55 144.64-6.4L144.64-6.4Q145.14-5.95 145.49-5.55L145.49-5.55Q143.24-2.55 140.56-0.58 137.89 1.4 135.49 1.95L135.49 1.95Q132.03 1.55 130.11-0.58 128.19-2.7 128.19-5.7L128.19-5.7Q128.19-7.75 128.76-9.88 129.34-12 130.36-13.98 131.39-15.95 132.76-17.7 134.14-19.45 135.71-20.75 137.28-22.05 138.96-22.8 140.64-23.55 142.28-23.55L142.28-23.55Q144.59-23.25 146.59-20.7ZM143.14-19.05L143.14-19.05Q141.78-18.85 140.34-17.95 138.89-17.05 137.61-15.55 136.34-14.05 135.28-12.05 134.24-10.05 133.64-7.75L133.64-7.75Q137.64-9.75 140.28-12.68 142.94-15.6 143.14-19.05ZM164.18-0.3L164.18-0.3Q163.63 0.55 162.46 1.07 161.28 1.6 160.23 1.7L160.23 1.7Q159.38 0.7 158.33-1.03 157.28-2.75 156.33-5.05L156.33-5.05Q153.78-2.75 151.23-0.88 148.68 1 146.48 2.3L146.48 2.3Q145.93 2.2 145.58 1.7 145.23 1.2 145.18 0.4L145.18 0.4Q146.18-0.15 147.56-1.05 148.93-1.95 150.36-3.03 151.78-4.1 153.11-5.28 154.43-6.45 155.38-7.55L155.38-7.55Q154.53-9.55 153.81-11.68 153.08-13.8 152.56-15.78 152.03-17.75 151.73-19.38 151.43-21 151.43-22L151.43-22Q151.43-22.7 151.61-22.93 151.78-23.15 152.43-23.15L152.43-23.15Q152.93-23.15 153.66-23.05 154.38-22.95 155.13-22.8 155.88-22.65 156.63-22.48 157.38-22.3 157.93-22.1L157.93-22.1Q157.83-21.55 157.83-21.15 157.83-20.75 157.83-20L157.83-20Q157.83-18.05 158.16-16.03 158.48-14 159.23-11.65L159.23-11.65Q161.28-14 163.03-16.88 164.78-19.75 166.58-23.75L166.58-23.75Q167.83-23.5 168.73-23.03 169.63-22.55 169.88-22L169.88-22Q169.33-19.7 166.78-16.2 164.23-12.7 160.28-8.75L160.28-8.75Q160.98-6.85 161.98-4.73 162.98-2.6 164.18-0.3ZM214.63-33.7L214.63-33.7Q214.78-32.85 214.85-32.52 214.93-32.2 214.93-31.65L214.93-31.65Q214.93-30 214.2-28.58 213.48-27.15 212.23-26.55L212.23-26.55Q211.23-27.9 209.78-28.88 208.33-29.85 206.6-30.48 204.88-31.1 203.03-31.4 201.18-31.7 199.43-31.7L199.43-31.7Q197.68-31.7 196.15-31.43 194.63-31.15 193.45-30.68 192.28-30.2 191.6-29.5 190.93-28.8 190.93-27.9L190.93-27.9Q191.08-26.8 192.28-25.68 193.48-24.55 195.23-23.48 196.98-22.4 199.1-21.35 201.23-20.3 203.28-19.35L203.28-19.35Q205.83-18.15 207.68-17.13 209.53-16.1 210.73-14.88 211.93-13.65 212.53-12.1 213.13-10.55 213.13-8.35L213.13-8.35Q213.13-5.8 212.28-3.58 211.43-1.35 209.8 0.3 208.18 1.95 205.88 2.88 203.58 3.8 200.73 3.8L200.73 3.8Q197.93 3.8 194.68 2.95 191.43 2.1 188.6 0.63 185.78-0.85 183.9-2.78 182.03-4.7 182.03-6.85L182.03-6.85Q182.03-7.85 182.6-9.4 183.18-10.95 184.68-12.65L184.68-12.65Q184.83-11.15 186.3-9.1 187.78-7.05 190.73-5.3L190.73-5.3Q193.48-3.7 196.4-2.98 199.33-2.25 201.88-2.25L201.88-2.25Q204.68-2.25 206.43-2.95 208.18-3.65 209.18-4.63 210.18-5.6 210.58-6.6 210.98-7.6 211.03-8.2L211.03-8.2Q210.98-9.2 210.1-10.13 209.23-11.05 207.75-11.93 206.28-12.8 204.33-13.7 202.38-14.6 200.28-15.5L200.28-15.5Q197.13-16.9 194.85-18.13 192.58-19.35 191.1-20.63 189.63-21.9 188.95-23.3 188.28-24.7 188.28-26.5L188.28-26.5Q188.28-29.3 189.98-31.8 191.68-34.3 194.88-35.6L194.88-35.6Q196.48-36.3 198.3-36.6 200.13-36.9 201.88-36.9L201.88-36.9Q205.18-36.9 208.33-36 211.48-35.1 214.63-33.7ZM213.28 16.55L213.28 16.55Q212.58 16.35 212.48 15.05L212.48 15.05Q212.28 14.4 212.2 13.5 212.13 12.6 212.13 11.45L212.13 11.45Q212.13 10.4 212.48 8.58 212.83 6.75 213.45 4.45 214.08 2.15 214.98-0.53 215.88-3.2 216.98-5.95L216.98-5.95Q218.33-9.4 219.33-11.93 220.33-14.45 221-16.3 221.68-18.15 222.1-19.35 222.53-20.55 222.78-21.4L222.78-21.4Q222.98-22 223.38-22.85 223.78-23.7 224.3-24.58 224.83-25.45 225.38-26.23 225.93-27 226.38-27.4L226.38-27.4Q228.13-27.15 229.68-26.5 231.23-25.85 231.58-25.25L231.58-25.25Q230.88-24.6 229.98-23.23 229.08-21.85 228.23-20.23 227.38-18.6 226.68-16.9 225.98-15.2 225.63-13.9L225.63-13.9Q226.13-14.75 226.93-15.75 227.73-16.75 229.38-18.5L229.38-18.5Q231.23-20.4 232.85-21.43 234.48-22.45 235.68-22.45L235.68-22.45Q237.58-22.45 238.8-21.4 240.03-20.35 240.03-18.7L240.03-18.7Q240.03-15.1 238.83-11.58 237.63-8.05 235.38-5.2L235.38-5.2Q234.53-4.1 233.38-3.1 232.23-2.1 230.98-1.33 229.73-0.55 228.53-0.1 227.33 0.35 226.38 0.35L226.38 0.35Q225.48 0.35 224.8-0.03 224.13-0.4 223.88-0.95L223.88-0.95Q225.83-2.1 227.68-4.15 229.53-6.2 231.1-8.88 232.68-11.55 233.85-14.65 235.03-17.75 235.63-20.95L235.63-20.95Q233.73-19.95 232.2-18.78 230.68-17.6 229.18-15.7L229.18-15.7Q227.38-13.5 226.33-12.15 225.28-10.8 224.6-9.85 223.93-8.9 223.5-8.08 223.08-7.25 222.58-6.05L222.58-6.05Q221.88-4.45 220.95-1.83 220.03 0.8 219.05 4.05 218.08 7.3 217.1 10.98 216.13 14.65 215.23 18.3L215.23 18.3Q214.68 18.2 214.28 17.5L214.28 17.5Q213.88 17.05 213.7 16.85 213.53 16.65 213.28 16.55ZM247.72 1.75L247.72 1.75Q244.87 1.45 243.17-0.75 241.47-2.95 241.47-6.35L241.47-6.35Q241.47-8.35 242.07-10.5 242.67-12.65 243.77-14.68 244.87-16.7 246.37-18.5 247.87-20.3 249.62-21.6L249.62-21.6Q252.37-23.65 254.77-23.65L254.77-23.65Q256.37-22.8 257.92-20.1L257.92-20.1Q258.17-20.1 258.37-20.13 258.57-20.15 258.82-20.15L258.82-20.15Q261.47-20.15 261.47-15.45L261.47-15.45Q261.47-12.3 260.45-9.47 259.42-6.65 257.6-4.35 255.77-2.05 253.25-0.48 250.72 1.1 247.72 1.75ZM250.27-14L250.27-14Q249.42-12.85 248.67-11.5 247.92-10.15 247.37-8.78 246.82-7.4 246.52-6.13 246.22-4.85 246.22-3.85L246.22-3.85Q246.22-2.65 246.62-1.55 247.02-0.45 247.52-0.3L247.52-0.3Q249.77-0.8 251.65-2.18 253.52-3.55 254.9-5.6 256.27-7.65 257.05-10.25 257.82-12.85 257.82-15.8L257.82-15.8Q257.82-17.1 257.67-17.85 257.52-18.6 257.17-19.15L257.17-19.15Q254.97-18.5 253.25-17.05 251.52-15.6 250.27-14ZM262.67-1L262.67-1Q262.92-2.45 263.55-4.83 264.17-7.2 265.02-9.88 265.87-12.55 266.82-15.25 267.77-17.95 268.67-20.1L268.67-20.1Q269.32-21.65 269.82-22.53 270.32-23.4 270.92-24L270.92-24Q271.62-23.9 272.37-23.65 273.12-23.4 273.82-23.05 274.52-22.7 275.07-22.33 275.62-21.95 275.92-21.6L275.92-21.6Q274.57-20 273.55-17.95 272.52-15.9 271.47-12.7L271.47-12.7Q274.17-15.1 276.25-17.3 278.32-19.5 280.12-22.2L280.12-22.2Q280.42-22.45 281.17-22.45L281.17-22.45Q281.87-22.45 282.52-22.23 283.17-22 283.42-21.6L283.42-21.6Q282.52-19.2 282.52-16.85L282.52-16.85Q282.52-14.65 283.17-13.55L283.17-13.55Q283.12-13.25 282.5-12.4 281.87-11.55 281.12-10.8L281.12-10.8Q279.77-11.5 278.72-12.73 277.67-13.95 277.17-15.4L277.17-15.4Q274.82-13.75 273.17-12.18 271.52-10.6 270.35-8.68 269.17-6.75 268.35-4.25 267.52-1.75 266.77 1.7L266.77 1.7Q266.32 1.65 265.7 1.38 265.07 1.1 264.45 0.7 263.82 0.3 263.32-0.15 262.82-0.6 262.67-1ZM289.82-19.15L286.97-19.15Q286.72-19.45 286.52-20.43 286.32-21.4 286.32-22.1L286.32-22.1Q287.62-22 288.82-21.93 290.02-21.85 291.02-21.8L291.02-21.8Q291.77-23.3 292.64-24.78 293.52-26.25 294.34-27.48 295.17-28.7 295.89-29.55 296.62-30.4 297.02-30.65L297.02-30.65Q297.52-30.65 298.29-30.48 299.07-30.3 299.87-30.03 300.67-29.75 301.32-29.45 301.97-29.15 302.22-28.85L302.22-28.85Q300.72-26.95 299.64-25.33 298.57-23.7 297.32-21.6L297.32-21.6Q298.32-21.6 299.34-21.65 300.37-21.7 301.42-21.8L301.42-21.8Q301.67-21.55 301.82-21.18 301.97-20.8 301.97-20.4L301.97-20.4Q299.52-19.5 296.02-19.4L296.02-19.4Q294.77-17 293.79-14.63 292.82-12.25 292.14-10.05 291.47-7.85 291.09-5.9 290.72-3.95 290.72-2.4L290.72-2.4Q290.72-0.2 292.37 0.05L292.37 0.05Q293.87-0.15 295.22-0.7 296.57-1.25 297.62-2.1L297.62-2.1Q297.92-1.65 297.97-1.35L297.97-1.35Q297.67-0.9 296.94-0.3 296.22 0.3 295.37 0.88 294.52 1.45 293.72 1.85 292.92 2.25 292.52 2.3L292.52 2.3Q291.27 2.25 290.02 1.75 288.77 1.25 287.74 0.5 286.72-0.25 286.07-1.18 285.42-2.1 285.42-3L285.42-3Q285.42-4.2 285.74-6.03 286.07-7.85 286.67-10 287.27-12.15 288.07-14.5 288.87-16.85 289.82-19.15L289.82-19.15ZM318.87-19.9L318.87-19.9Q318.82-18.95 318.54-17.93 318.27-16.9 317.87-16.07 317.47-15.25 317.02-14.7 316.57-14.15 316.17-14.15L316.17-14.15Q315.62-14.2 315.52-14.9L315.52-14.9Q315.52-15.05 315.64-15.38 315.77-15.7 315.92-16.1 316.07-16.5 316.19-16.9 316.32-17.3 316.32-17.6L316.32-17.6Q316.32-18.3 315.99-18.78 315.67-19.25 315.12-19.25L315.12-19.25Q313.12-19.25 312.07-16.75 311.02-14.25 311.02-9.4L311.02-9.4Q311.02-8.9 311.07-8.8L311.07-8.8Q312.12-8.85 312.94-8.88 313.77-8.9 314.57-8.9L314.57-8.9Q314.62-8.8 314.62-8.5L314.62-8.5Q314.62-8.05 314.42-7.85L314.42-7.85Q313.27-7.6 312.59-7.43 311.92-7.25 311.57-7.1 311.22-6.95 311.14-6.78 311.07-6.6 311.07-6.3L311.07-6.3Q311.07-5.9 311.09-5.5 311.12-5.1 311.12-4.5L311.12-4.5Q311.12-0.3 308.84 2.25 306.57 4.8 302.52 5.2L302.52 5.2Q301.82 5.15 301.07 4.8 300.32 4.45 299.64 3.9 298.97 3.35 298.47 2.68 297.97 2 297.77 1.3L297.77 1.3Q297.77-0.6 298.57-2.33 299.37-4.05 300.74-5.38 302.12-6.7 303.99-7.53 305.87-8.35 308.07-8.5L308.07-8.5Q308.07-9.75 307.82-10.95 307.57-12.15 307.29-13.28 307.02-14.4 306.77-15.48 306.52-16.55 306.52-17.6L306.52-17.6Q306.52-18.95 307.07-20.28 307.62-21.6 308.52-22.73 309.42-23.85 310.62-24.65 311.82-25.45 313.12-25.75L313.12-25.75Q313.67-25.6 314.59-24.88 315.52-24.15 316.42-23.25 317.32-22.35 318.02-21.43 318.72-20.5 318.87-19.9ZM302.37 2.9L302.37 2.9Q303.57 2.4 304.64 1.45 305.72 0.5 306.52-0.7 307.32-1.9 307.79-3.25 308.27-4.6 308.27-5.9L308.27-5.9Q307.27-5.75 306.07-4.98 304.87-4.2 303.82-3.13 302.77-2.05 302.07-0.9 301.37 0.25 301.37 1.1L301.37 1.1Q301.37 2.2 302.37 2.9Z" opacity="1" transform="matrix(1,0,0,1,0,0)" fill="#ffffff" class="wordmark-text-0" data-fill-palette-color="primary" id="text-0"></path></svg></g></svg></g><g transform="matrix(1,0,0,1,19.77600000000001,93.25610276011486)"><svg viewBox="0 0 375.74399999999997 31.66765651976374" height="31.66765651976374" width="375.74399999999997"><g transform="matrix(1,0,0,1,0,0)"><svg width="375.74399999999997" viewBox="2.05 -36.4 440.15999999999997 37.1" height="31.66765651976374" data-palette-color="#ffffff"><path d="M6.25-11.05Q6.4-7.95 7.93-5.55 9.45-3.15 13.55-3.15L13.55-3.15Q15.7-3.15 17.55-3.83 19.4-4.5 21.45-5.9L21.45-5.9 23.35-2.8Q21.5-1.3 18.8-0.38 16.1 0.55 13.35 0.55L13.35 0.55Q9.85 0.55 7.3-1.07 4.75-2.7 3.4-5.53 2.05-8.35 2.05-11.95L2.05-11.95Q2.05-15.55 3.38-18.75 4.7-21.95 7.28-23.9 9.85-25.85 13.4-25.85L13.4-25.85Q16.3-25.85 18.7-24.45 21.1-23.05 22.5-20.58 23.9-18.1 23.9-15.1L23.9-15.1Q23.9-13.85 23.7-11.05L23.7-11.05 6.25-11.05ZM6.45-14.75L19.85-14.75 19.85-15.25Q19.85-17.2 18.98-18.78 18.1-20.35 16.63-21.25 15.15-22.15 13.35-22.15L13.35-22.15Q10.8-22.15 8.93-20.25 7.05-18.35 6.45-14.75L6.45-14.75ZM29.95 0.05L29.95-36.35 33.95-36.35 33.95 0.05 29.95 0.05ZM44.09-11.05Q44.24-7.95 45.77-5.55 47.3-3.15 51.39-3.15L51.39-3.15Q53.55-3.15 55.39-3.83 57.25-4.5 59.3-5.9L59.3-5.9 61.2-2.8Q59.34-1.3 56.64-0.38 53.95 0.55 51.2 0.55L51.2 0.55Q47.7 0.55 45.14-1.07 42.59-2.7 41.24-5.53 39.89-8.35 39.89-11.95L39.89-11.95Q39.89-15.55 41.22-18.75 42.55-21.95 45.12-23.9 47.7-25.85 51.24-25.85L51.24-25.85Q54.14-25.85 56.55-24.45 58.95-23.05 60.34-20.58 61.75-18.1 61.75-15.1L61.75-15.1Q61.75-13.85 61.55-11.05L61.55-11.05 44.09-11.05ZM44.3-14.75L57.7-14.75 57.7-15.25Q57.7-17.2 56.82-18.78 55.95-20.35 54.47-21.25 52.99-22.15 51.2-22.15L51.2-22.15Q48.64-22.15 46.77-20.25 44.89-18.35 44.3-14.75L44.3-14.75ZM67.29-20.45Q66.89-21.35 66.09-22.13 65.29-22.9 64.49-23.1L64.49-23.1 66.69-26.45Q69.79-24.7 71.34-20.55L71.34-20.55 76.84-6 83.89-25.4 87.99-25.4 78.69 0.05 75.04 0.05 67.29-20.45ZM109.24 0.65Q107.34-0.65 106.54-2.55L106.54-2.55Q105.39-1.1 103.47-0.3 101.54 0.5 99.14 0.5L99.14 0.5Q95.04 0.5 92.56-1.75 90.09-4 90.09-7.7L90.09-7.7Q90.09-11.6 93.04-13.78 95.99-15.95 101.29-15.95L101.29-15.95 105.64-15.95 105.64-17Q105.64-19.85 104.62-21.03 103.59-22.2 101.14-22.2L101.14-22.2Q99.04-22.2 97.02-21.45 94.99-20.7 93.29-19.3L93.29-19.3 91.29-22.35Q93.09-24 95.74-24.95 98.39-25.9 101.19-25.9L101.19-25.9Q105.34-25.9 107.54-23.75 109.74-21.6 109.74-17.55L109.74-17.55 109.74-7.6Q109.74-3.65 111.89-1.85L111.89-1.85 109.24 0.65ZM99.19-3.2Q102.09-3.2 103.87-4.88 105.64-6.55 105.64-9.2L105.64-9.2 105.64-12.25 101.29-12.25Q97.54-12.25 95.87-11.18 94.19-10.1 94.19-7.75L94.19-7.75Q94.19-5.6 95.52-4.4 96.84-3.2 99.19-3.2L99.19-3.2ZM124.54 0.7Q120.94 0.7 118.94-1.43 116.94-3.55 116.94-7.55L116.94-7.55 116.94-31.45 121.04-31.45 121.04-25.35 128.74-25.35 128.74-21.65 121.04-21.65 121.04-7.55Q121.04-5.1 122.06-4.15 123.09-3.2 124.49-3.2L124.49-3.2Q125.49-3.2 126.11-3.4 126.74-3.6 127.79-4.15L127.79-4.15 129.69-0.8Q127.69 0.7 124.54 0.7L124.54 0.7ZM136.19-11.05Q136.34-7.95 137.86-5.55 139.38-3.15 143.49-3.15L143.49-3.15Q145.63-3.15 147.49-3.83 149.34-4.5 151.38-5.9L151.38-5.9 153.28-2.8Q151.44-1.3 148.74-0.38 146.03 0.55 143.28 0.55L143.28 0.55Q139.78 0.55 137.24-1.07 134.69-2.7 133.34-5.53 131.99-8.35 131.99-11.95L131.99-11.95Q131.99-15.55 133.31-18.75 134.63-21.95 137.21-23.9 139.78-25.85 143.34-25.85L143.34-25.85Q146.24-25.85 148.63-24.45 151.03-23.05 152.44-20.58 153.84-18.1 153.84-15.1L153.84-15.1Q153.84-13.85 153.63-11.05L153.63-11.05 136.19-11.05ZM136.38-14.75L149.78-14.75 149.78-15.25Q149.78-17.2 148.91-18.78 148.03-20.35 146.56-21.25 145.09-22.15 143.28-22.15L143.28-22.15Q140.74-22.15 138.86-20.25 136.99-18.35 136.38-14.75L136.38-14.75ZM182.88-14.8L174.33-30.3Q174.13-30.7 173.81-30.8 173.48-30.9 172.63-30.85L172.63-30.85 172.63-34.75Q174.38-34.9 175.73-34.23 177.08-33.55 177.88-32.15L177.88-32.15 184.83-19.25 193.08-34.35 197.78-34.35 186.88-14.9 186.98 0.05 182.88 0.05 182.88-14.8ZM210.53 0.5Q206.98 0.5 204.15-1.2 201.33-2.9 199.73-5.88 198.13-8.85 198.13-12.6L198.13-12.6Q198.13-16.35 199.75-19.38 201.38-22.4 204.2-24.13 207.03-25.85 210.58-25.85L210.58-25.85Q214.13-25.85 216.95-24.15 219.78-22.45 221.38-19.43 222.98-16.4 222.98-12.65L222.98-12.65Q222.98-8.9 221.38-5.9 219.78-2.9 216.93-1.2 214.08 0.5 210.53 0.5L210.53 0.5ZM210.58-3.2Q214.33-3.2 216.6-5.8 218.88-8.4 218.88-12.65L218.88-12.65Q218.88-16.95 216.6-19.55 214.33-22.15 210.58-22.15L210.58-22.15Q208.13-22.15 206.23-20.95 204.33-19.75 203.28-17.6 202.23-15.45 202.23-12.65L202.23-12.65Q202.23-8.4 204.53-5.8 206.83-3.2 210.58-3.2L210.58-3.2ZM237.18 0.4Q232.93 0.4 230.53-1.83 228.13-4.05 228.13-8.05L228.13-8.05 228.13-24.95 232.23-24.95 232.28-8.55Q232.28-6.05 233.45-4.67 234.63-3.3 237.33-3.3L237.33-3.3Q239.58-3.3 241.15-4.42 242.73-5.55 244.48-8L244.48-8 244.48-25 248.58-25 248.58-7.7Q248.58-3.8 250.78-1.95L250.78-1.95 248.18 0.5Q247.18-0.1 246.33-1.25 245.48-2.4 245.03-3.6L245.03-3.6Q243.93-1.6 241.75-0.6 239.58 0.4 237.18 0.4L237.18 0.4ZM266.67-25.85Q268.12-25.85 270.12-25.35L270.12-25.35 270.02-21.4Q268.02-21.95 266.77-21.95L266.77-21.95Q264.42-21.95 263.12-20.85L263.12-20.85Q261.62-19.65 260.52-17.65L260.52-17.65 260.52 0.05 256.42 0.05 256.42-17.65Q256.42-21.55 254.32-23.35L254.32-23.35 257.07-25.9Q257.82-25.45 258.6-24.55 259.37-23.65 259.87-22.5L259.87-22.5Q260.97-23.9 262.12-24.65L262.12-24.65Q264.02-25.85 266.67-25.85L266.67-25.85ZM298.42 0.5Q295.07 0.5 292.59-1.28 290.12-3.05 288.82-6.03 287.52-9 287.52-12.5L287.52-12.5Q287.52-16.25 288.99-19.28 290.47-22.3 293.27-24.05 296.07-25.8 299.87-25.8L299.87-25.8Q301.77-25.8 305.17-25.4L305.17-25.4 305.17-36.4 309.02-36.4 309.02-7.55Q309.02-3.7 311.17-1.75L311.17-1.75 308.72 0.6Q306.87-0.6 305.92-2.95L305.92-2.95Q304.62-1.2 302.62-0.35 300.62 0.5 298.42 0.5L298.42 0.5ZM298.57-3.2Q300.62-3.2 302.17-4.17 303.72-5.15 304.57-6.85L304.57-6.85Q305.17-8.05 305.17-9.65L305.17-9.65 305.17-21.65Q302.82-21.95 301.74-22.03 300.67-22.1 299.47-22.1L299.47-22.1Q295.77-22.1 293.62-19.43 291.47-16.75 291.47-12.65L291.47-12.65Q291.47-8.6 293.34-5.9 295.22-3.2 298.57-3.2L298.57-3.2ZM327.17-25.85Q328.62-25.85 330.62-25.35L330.62-25.35 330.52-21.4Q328.52-21.95 327.27-21.95L327.27-21.95Q324.92-21.95 323.62-20.85L323.62-20.85Q322.12-19.65 321.02-17.65L321.02-17.65 321.02 0.05 316.92 0.05 316.92-17.65Q316.92-21.55 314.82-23.35L314.82-23.35 317.57-25.9Q318.32-25.45 319.09-24.55 319.87-23.65 320.37-22.5L320.37-22.5Q321.47-23.9 322.62-24.65L322.62-24.65Q324.52-25.85 327.17-25.85L327.17-25.85ZM336.76-11.05Q336.91-7.95 338.44-5.55 339.96-3.15 344.06-3.15L344.06-3.15Q346.21-3.15 348.06-3.83 349.91-4.5 351.96-5.9L351.96-5.9 353.86-2.8Q352.01-1.3 349.31-0.38 346.61 0.55 343.86 0.55L343.86 0.55Q340.36 0.55 337.81-1.07 335.26-2.7 333.91-5.53 332.56-8.35 332.56-11.95L332.56-11.95Q332.56-15.55 333.89-18.75 335.21-21.95 337.79-23.9 340.36-25.85 343.91-25.85L343.91-25.85Q346.81-25.85 349.21-24.45 351.61-23.05 353.01-20.58 354.41-18.1 354.41-15.1L354.41-15.1Q354.41-13.85 354.21-11.05L354.21-11.05 336.76-11.05ZM336.96-14.75L350.36-14.75 350.36-15.25Q350.36-17.2 349.49-18.78 348.61-20.35 347.14-21.25 345.66-22.15 343.86-22.15L343.86-22.15Q341.31-22.15 339.44-20.25 337.56-18.35 336.96-14.75L336.96-14.75ZM377.46 0.65Q375.56-0.65 374.76-2.55L374.76-2.55Q373.61-1.1 371.69-0.3 369.76 0.5 367.36 0.5L367.36 0.5Q363.26 0.5 360.79-1.75 358.31-4 358.31-7.7L358.31-7.7Q358.31-11.6 361.26-13.78 364.21-15.95 369.51-15.95L369.51-15.95 373.86-15.95 373.86-17Q373.86-19.85 372.84-21.03 371.81-22.2 369.36-22.2L369.36-22.2Q367.26-22.2 365.24-21.45 363.21-20.7 361.51-19.3L361.51-19.3 359.51-22.35Q361.31-24 363.96-24.95 366.61-25.9 369.41-25.9L369.41-25.9Q373.56-25.9 375.76-23.75 377.96-21.6 377.96-17.55L377.96-17.55 377.96-7.6Q377.96-3.65 380.11-1.85L380.11-1.85 377.46 0.65ZM367.41-3.2Q370.31-3.2 372.09-4.88 373.86-6.55 373.86-9.2L373.86-9.2 373.86-12.25 369.51-12.25Q365.76-12.25 364.09-11.18 362.41-10.1 362.41-7.75L362.41-7.75Q362.41-5.6 363.74-4.4 365.06-3.2 367.41-3.2L367.41-3.2ZM385.41-17.7Q385.41-19.45 384.93-20.85 384.46-22.25 383.16-23.4L383.16-23.4 385.71-25.9Q387.71-24.75 388.66-22.15L388.66-22.15Q390.06-23.9 391.96-24.8 393.86-25.7 395.91-25.7L395.91-25.7Q398.11-25.7 399.93-24.73 401.76-23.75 402.81-21.9L402.81-21.9Q404.26-23.75 406.28-24.73 408.31-25.7 410.41-25.7L410.41-25.7Q413.91-25.7 416.18-23.45 418.46-21.2 418.41-17.4L418.41-17.4 418.21 0.05 414.36 0.05 414.41-16.85Q414.41-19.45 413.38-20.73 412.36-22 410.16-22L410.16-22Q408.06-22 406.56-20.93 405.06-19.85 403.91-17.65L403.91-17.65 403.91 0.05 399.91 0.05 399.91-16.85Q399.91-19.35 398.86-20.68 397.81-22 395.76-22L395.76-22Q393.71-22 391.96-20.8 390.21-19.6 389.41-17.8L389.41-17.8 389.41 0.05 385.41 0.05 385.41-17.7ZM432.91 0.5Q427.41 0.5 423.21-3.7L423.21-3.7 425.56-6.45Q427.46-4.8 429.16-4.03 430.86-3.25 432.76-3.25L432.76-3.25Q435.21-3.25 436.63-4.33 438.06-5.4 438.06-7.3L438.06-7.3Q438.06-8.45 437.48-9.15 436.91-9.85 435.83-10.38 434.76-10.9 432.26-11.9L432.26-11.9Q429.51-13 427.98-13.83 426.46-14.65 425.56-15.93 424.66-17.2 424.66-19.1L424.66-19.1Q424.66-22.2 426.86-24.1 429.06-26 432.56-26L432.56-26Q434.61-26 436.68-25.33 438.76-24.65 439.96-23.6L439.96-23.6 438.21-20.65Q435.96-22.3 432.96-22.3L432.96-22.3Q431.06-22.3 429.93-21.53 428.81-20.75 428.81-19.4L428.81-19.4Q428.81-18 429.93-17.23 431.06-16.45 433.81-15.35L433.81-15.35Q436.91-14.1 438.66-13.1 440.41-12.1 441.31-10.78 442.21-9.45 442.21-7.45L442.21-7.45Q442.21-3.9 439.61-1.7 437.01 0.5 432.91 0.5L432.91 0.5Z" opacity="1" transform="matrix(1,0,0,1,0,0)" fill="#ffffff" class="slogan-text-1" data-fill-palette-color="secondary" id="text-1"></path></svg></g></svg></g></svg></g></svg></g><g transform="matrix(1,0,0,1,413.3308204634641,0)"><svg viewBox="0 0 214.48851839999998 214.48851839999998" height="214.48851839999998" width="214.48851839999998"><g><svg></svg></g><g id="icon-0"><svg viewBox="0 0 214.48851839999998 214.48851839999998" height="214.48851839999998" width="214.48851839999998"><g><rect width="195.02567136" height="195.02567136" x="9.731423519999993" y="9.731423519999993" fill="#68b436" data-fill-palette-color="accent"></rect><rect width="195.02567136" height="195.02567136" x="-5.329070518200751e-15" y="-5.329070518200751e-15" fill="#68b436" opacity="0.5" data-fill-palette-color="accent"></rect></g><g transform="matrix(1,0,0,1,27.80406719999999,27.8067152064)"><svg viewBox="0 0 158.880384 158.87508798719998" height="158.87508798719998" width="158.880384"><g><svg xmlns="http://www.w3.org/2000/svg" xmlns:xlink="http://www.w3.org/1999/xlink" version="1.1" x="0" y="0" viewBox="5 5.002 90 89.997" enable-background="new 0 0 100 100" xml:space="preserve" height="158.87508798719998" width="158.880384" class="icon-z$-0" data-fill-palette-color="background" id="z$-0"><g fill="#ffffff" data-fill-palette-color="background"><path fill="none" d="M65.601 64.003h-7.244c0.214-0.105 0.43-0.319 0.537-0.532l5.856-6.599c0.531-0.749 0.745-1.92 0.318-2.771l-3.622-8.307c-0.425-0.851-1.277-1.599-2.128-1.919l-1.599-0.425-5.218-1.597 0.637-2.025c1.172 1.492 3.09 2.557 5.218 2.557h0.108c1.813 0 3.514-0.745 4.795-2.025 1.277-1.277 1.917-2.979 1.917-4.791 0-3.73-3.09-6.709-6.82-6.709-0.637 0-1.275 0.106-1.914 0.32l1.914-6.286c0.214-0.426 0.108-0.959-0.106-1.385-0.212-0.425-0.637-0.748-1.063-0.96l-1.383-0.426c-0.108 0-0.32 0-0.532 0-0.856 0-1.6 0.532-1.811 1.28l-6.39 20.556c-0.104 0-0.104 0.108-0.104 0.214l-6.287 21.831h-6.39c-0.426 0.106-0.746 0.318-1.065 0.64-0.533 0.536-0.852 1.173-0.852 2.023 0 0.852 0.32 1.597 0.852 2.133l9.477 9.797c0.429 0.639 0.962 1.063 1.706 1.171 0.746 0.214 1.49 0.106 2.022-0.318 0.748-0.426 1.174-0.959 1.388-1.703 0.318-0.851 0.105-1.6-0.32-2.345l-5.433-5.536h0.105H57.72L52.289 75.4c-0.318 0.745-0.426 1.494-0.212 2.345 0.108 0.745 0.639 1.383 1.277 1.808 0.745 0.32 1.494 0.428 2.131 0.214 0.745-0.108 1.277-0.532 1.703-1.171l9.481-9.797c0.639-0.535 0.957-1.174 0.957-2.025 0-0.745-0.318-1.491-0.854-2.022C66.346 64.321 65.922 64.109 65.601 64.003zM56.548 59.424l2.239-8.414 1.491 3.408c0.106 0.318 0 1.065-0.318 1.383L56.548 59.424z"></path><path fill-rule="evenodd" clip-rule="evenodd" d="M60.278 54.418l-1.491-3.408-2.239 8.414 3.411-3.622C60.278 55.483 60.384 54.737 60.278 54.418z" fill="#ffffff" data-fill-palette-color="background"></path><path fill-rule="evenodd" clip-rule="evenodd" d="M49.945 5.002C25.237 5.002 5 25.237 5 49.947c0 24.815 20.237 45.052 44.945 45.052C74.765 94.998 95 74.761 95 49.947 95 25.237 74.765 5.002 49.945 5.002zM66.669 68.799l-9.481 9.797c-0.426 0.639-0.958 1.063-1.703 1.171-0.637 0.214-1.386 0.106-2.131-0.214-0.638-0.425-1.169-1.063-1.277-1.808-0.214-0.851-0.106-1.6 0.212-2.345l5.431-5.536H42.169h-0.105l5.433 5.536c0.425 0.745 0.639 1.494 0.32 2.345-0.214 0.745-0.64 1.277-1.388 1.703-0.532 0.425-1.276 0.532-2.022 0.318-0.745-0.108-1.277-0.532-1.706-1.171l-9.477-9.797c-0.533-0.535-0.852-1.28-0.852-2.133 0-0.851 0.32-1.488 0.852-2.023 0.318-0.322 0.638-0.534 1.065-0.64h6.39l6.287-21.831c0-0.106 0-0.214 0.104-0.214l6.39-20.556c0.211-0.748 0.955-1.28 1.811-1.28 0.212 0 0.425 0 0.532 0l1.383 0.426c0.426 0.212 0.851 0.535 1.063 0.96 0.214 0.426 0.32 0.959 0.106 1.385l-1.914 6.286c0.639-0.214 1.277-0.32 1.914-0.32 3.73 0 6.82 2.979 6.82 6.709 0 1.813-0.64 3.514-1.917 4.791-1.28 1.28-2.982 2.025-4.795 2.025h-0.108c-2.128 0-4.045-1.065-5.218-2.557l-0.637 2.025 5.218 1.597 1.599 0.425c0.851 0.32 1.703 1.068 2.128 1.919l3.622 8.307c0.426 0.851 0.212 2.022-0.318 2.771l-5.856 6.599c-0.108 0.214-0.323 0.428-0.537 0.532h7.244c0.32 0.106 0.745 0.318 1.171 0.749 0.536 0.531 0.854 1.277 0.854 2.022C67.626 67.625 67.308 68.264 66.669 68.799z" fill="#ffffff" data-fill-palette-color="background"></path></g></svg></g></svg></g></svg></g></svg></g></svg></g><defs></defs></svg><rect width="395.52" height="135.12565406338575" fill="none" stroke="none" visibility="hidden"></rect></g></svg></g></svg>